<svg width="333" height="315" viewBox="0 0 333 315" fill="none" xmlns="http://www.w3.org/2000/svg">
<path d="M130.928 311.809C201.58 311.809 258.856 254.525 258.856 183.862C258.856 113.199 201.58 55.915 130.928 55.915C60.2752 55.915 3 113.199 3 183.862C3 254.525 60.2752 311.809 130.928 311.809Z" stroke="#FFF027" stroke-width="6" stroke-miterlimit="10"/>
<path d="M130.928 279.822C183.917 279.822 226.874 236.859 226.874 183.862C226.874 130.865 183.917 87.9017 130.928 87.9017C77.9384 87.9017 34.9819 130.865 34.9819 183.862C34.9819 236.859 77.9384 279.822 130.928 279.822Z" stroke="#FFF027" stroke-width="6" stroke-miterlimit="10"/>
<path d="M130.928 247.836C166.254 247.836 194.892 219.194 194.892 183.862C194.892 148.53 166.254 119.889 130.928 119.889C95.6016 119.889 66.964 148.53 66.964 183.862C66.964 219.194 95.6016 247.836 130.928 247.836Z" stroke="#FFF027" stroke-width="6" stroke-miterlimit="10"/>
<path d="M332.869 27.8328C332.472 26.1093 331.217 24.6922 329.539 24.105L314.222 18.7176L308.83 3.44903C308.241 1.77663 306.82 0.525531 305.091 0.129774C303.349 -0.265983 301.543 0.257438 300.288 1.50854L268.668 33.0287C264.467 37.216 262.341 42.9992 262.84 48.8972L263.903 61.5998C263.852 61.6381 263.814 61.6891 263.763 61.7402L258.115 67.3702L202.763 122.546C202.673 122.623 202.571 122.687 202.481 122.776L187.561 137.7L178.327 146.905C178.276 146.956 178.237 147.019 178.186 147.083L131.568 193.719L104.674 166.82C102.688 164.829 99.4739 164.829 97.4888 166.82C95.5037 168.812 95.5037 172.029 97.4888 174.008L127.97 204.506C128.956 205.502 130.262 206 131.556 206C132.862 206 134.155 205.502 135.154 204.519L185.576 154.296C185.601 154.271 185.64 154.258 185.665 154.232L202.801 137.151L265.427 74.7236L271.114 69.0553C271.165 69.0042 271.203 68.966 271.255 68.9149L283.998 69.9745C284.561 70.0256 285.125 70.0511 285.688 70.0511C291.003 70.0511 296.113 67.9574 299.917 64.1658L331.537 32.6457C332.741 31.369 333.266 29.5562 332.869 27.8328ZM292.54 56.8379C290.504 58.8678 287.686 59.8891 284.817 59.6593L274.059 58.7656L273.163 48.0419C272.92 45.1822 273.957 42.3736 275.993 40.3438L301.799 14.6196L305.296 24.488C305.821 25.9561 306.973 27.1178 308.459 27.6413L318.359 31.1265L292.54 56.8379Z" fill="#8D34FE"/>
</svg>
