<svg width="1032" height="833" viewBox="0 0 1032 833" fill="none" xmlns="http://www.w3.org/2000/svg">
<g clip-path="url(#clip0)">
<path opacity="0.1" d="M530.872 833.01C788.441 833.01 997.243 646.534 997.243 416.505C997.243 186.476 788.441 0 530.872 0C273.302 0 64.5 186.476 64.5 416.505C64.5 646.534 273.302 833.01 530.872 833.01Z" fill="#7A28CB"/>
<path opacity="0.1" d="M171.96 656.242C266.931 656.242 343.92 644.301 343.92 629.571C343.92 614.84 266.931 602.899 171.96 602.899C76.9891 602.899 0 614.84 0 629.571C0 644.301 76.9891 656.242 171.96 656.242Z" fill="#7A28CB"/>
<path opacity="0.1" d="M254.615 783.299C291.554 783.299 321.499 777.109 321.499 769.473C321.499 761.837 291.554 755.647 254.615 755.647C217.675 755.647 187.73 761.837 187.73 769.473C187.73 777.109 217.675 783.299 254.615 783.299Z" fill="#7A28CB"/>
<path opacity="0.1" d="M711.632 730.106C748.572 730.106 778.517 723.916 778.517 716.28C778.517 708.644 748.572 702.453 711.632 702.453C674.693 702.453 644.748 708.644 644.748 716.28C644.748 723.916 674.693 730.106 711.632 730.106Z" fill="#7A28CB"/>
<path opacity="0.1" d="M484.679 718.506C544.748 718.506 593.443 710.251 593.443 700.068C593.443 689.885 544.748 681.63 484.679 681.63C424.61 681.63 375.914 689.885 375.914 700.068C375.914 710.251 424.61 718.506 484.679 718.506Z" fill="#7A28CB"/>
<path opacity="0.1" d="M805.162 644.338C930.45 644.338 1032.02 628.419 1032.02 608.782C1032.02 589.145 930.45 573.227 805.162 573.227C679.874 573.227 578.308 589.145 578.308 608.782C578.308 628.419 679.874 644.338 805.162 644.338Z" fill="#7A28CB"/>
<path d="M47.0186 546.719C41.9226 556.639 39.5425 567.732 40.1203 578.871C40.698 590.009 44.213 600.796 50.3079 610.135C52.3074 613.136 54.147 615.297 55.6167 615.867C62.6652 618.638 76.7822 625.451 76.7822 625.451L110.775 612.086C110.775 612.086 116.294 582.874 121.513 557.794C125.072 540.687 128.511 525.51 129.921 522.849C133.44 516.297 129.921 444.957 129.921 444.957C129.921 444.957 95.928 442.677 86.5801 468.897L82.4909 476.901L47.0186 546.719Z" fill="#A8A8A8"/>
<path opacity="0.1" d="M92.1308 554.621C112.797 578.322 121.515 557.823 121.515 557.823C125.074 540.715 128.513 525.538 129.923 522.877C133.442 516.324 129.923 444.983 129.923 444.983C129.923 444.983 95.93 442.702 86.5819 468.923L82.4927 476.927C79.8733 497.906 77.2838 537.564 92.1308 554.621Z" fill="white"/>
<path d="M96.6746 620.681L216.647 606.815L238.052 465.872L221.865 429.266C215.027 413.677 205.558 399.382 193.872 387.007C185.724 378.414 175.876 370.15 165.519 365.998C164.103 365.427 162.658 364.933 161.19 364.517C159.501 364.004 157.716 363.897 155.979 364.205C154.242 364.513 152.601 365.226 151.192 366.288C136.395 376.783 131.107 421.403 129.397 442.882C128.694 451.709 127.502 460.489 125.828 469.184L96.6746 620.681Z" fill="#A8A8A8"/>
<path opacity="0.1" d="M176.559 464.362L151.567 525.889C164.663 516.305 184.067 464.112 184.067 464.112L201.452 523.618L187.596 460.9C189.624 447.281 190.214 433.485 189.355 419.742C188.256 403.995 173.49 378.724 165.473 365.998C164.057 365.427 162.612 364.933 161.144 364.517C159.456 364.004 157.671 363.897 155.933 364.205C154.196 364.513 152.556 365.226 151.147 366.288C157.445 378.944 173.19 410.588 177.989 419.992C184.077 431.837 176.559 464.362 176.559 464.362Z" fill="white"/>
<path d="M196.952 625.465H262.046C264.724 625.466 267.374 624.922 269.835 623.865C272.296 622.809 274.516 621.263 276.361 619.322C278.206 617.38 279.637 615.083 280.568 612.57C281.498 610.058 281.907 607.382 281.772 604.706C280.332 576.773 276.683 526.971 268.005 495.357C263.316 478.3 257.867 469.346 252.869 464.934C250.524 462.67 247.498 461.245 244.261 460.882C241.805 460.67 239.347 461.267 237.262 462.583C225.175 474.178 211.058 535.195 211.058 535.195L196.952 625.465Z" fill="#A8A8A8"/>
<path opacity="0.1" d="M257.045 571.36C259.724 578.792 260.784 587.363 257.045 595.715L242.538 602.887C242.538 602.887 203.547 586.353 208.286 552.466C208.286 552.466 209.566 545.464 222.992 546.004C230.544 546.369 237.815 548.976 243.88 553.492C249.944 558.008 254.527 564.228 257.045 571.36V571.36Z" fill="white"/>
<path opacity="0.1" d="M241.566 482.26C241.116 470.375 247.565 466.253 252.893 464.942C250.549 462.678 247.523 461.254 244.285 460.89C240.576 463.996 237.947 468.2 236.777 472.896L223.18 539.215C223.18 539.215 242.326 502.179 241.566 482.26Z" fill="white"/>
<path d="M179.837 534.706L212.069 578.822L217.658 615.236L196.943 625.47L167.08 632.073C164.203 632.712 161.246 632.904 158.312 632.643L76.8206 625.47L87.908 599.75L126.199 545.96L179.837 534.706Z" fill="#A8A8A8"/>
<path opacity="0.1" d="M167.373 519.547C167.373 519.547 189.368 521.057 181.11 558.874C172.852 596.691 87.8813 599.722 87.8813 599.722C87.8813 599.722 105.937 567.708 133.711 544.768C136.83 542.197 139.839 539.515 142.709 536.654C149.097 530.261 161.314 519.026 167.373 519.547Z" fill="white"/>
<path opacity="0.1" d="M187.151 548.067C187.151 548.067 216.954 575.209 214.145 616.978Z" fill="black"/>
<path opacity="0.1" d="M237.277 462.58C237.277 462.58 206.004 504.196 202.495 568.23Z" fill="black"/>
<path opacity="0.1" d="M129.962 444.958C129.962 444.958 145.098 513.738 107.307 565.581Z" fill="black"/>
<path d="M405.653 699.669H568.761C570.337 699.661 571.885 699.244 573.253 698.46C574.621 697.676 575.763 696.551 576.568 695.195C577.373 693.838 577.814 692.297 577.848 690.719C577.881 689.142 577.506 687.583 576.759 686.194L495.245 534.646C494.464 533.193 493.304 531.979 491.889 531.133C490.473 530.287 488.855 529.84 487.207 529.84C485.558 529.84 483.94 530.287 482.525 531.133C481.109 531.979 479.95 533.193 479.168 534.646L397.614 686.194C396.866 687.586 396.491 689.149 396.526 690.729C396.561 692.31 397.006 693.854 397.815 695.212C398.625 696.57 399.773 697.694 401.147 698.475C402.52 699.256 404.073 699.668 405.653 699.669V699.669ZM497.585 671.977H476.829V651.218H497.585V671.977ZM497.585 637.372H476.829V595.843H497.585V637.372Z" fill="#A8494B"/>
<path opacity="0.1" d="M405.653 699.669H568.761C570.337 699.661 571.885 699.244 573.253 698.46C574.621 697.676 575.763 696.551 576.568 695.195C577.373 693.838 577.814 692.297 577.848 690.719C577.881 689.142 577.506 687.583 576.759 686.194L495.245 534.646C494.464 533.193 493.304 531.979 491.889 531.133C490.473 530.287 488.855 529.84 487.207 529.84C485.558 529.84 483.94 530.287 482.525 531.133C481.109 531.979 479.95 533.193 479.168 534.646L397.614 686.194C396.866 687.586 396.491 689.149 396.526 690.729C396.561 692.31 397.006 693.854 397.815 695.212C398.625 696.57 399.773 697.694 401.147 698.475C402.52 699.256 404.073 699.668 405.653 699.669V699.669ZM497.585 671.977H476.829V651.218H497.585V671.977ZM497.585 637.372H476.829V595.843H497.585V637.372Z" fill="#F86D70"/>
<path d="M405.653 704.692H568.761C570.337 704.684 571.885 704.267 573.253 703.483C574.621 702.699 575.763 701.574 576.568 700.218C577.373 698.861 577.814 697.319 577.848 695.742C577.881 694.165 577.506 692.605 576.759 691.216L495.245 539.663C494.464 538.21 493.304 536.996 491.889 536.15C490.473 535.304 488.855 534.857 487.207 534.857C485.558 534.857 483.94 535.304 482.525 536.15C481.109 536.996 479.95 538.21 479.168 539.663L397.614 691.216C396.866 692.608 396.491 694.171 396.526 695.752C396.561 697.333 397.006 698.877 397.815 700.235C398.625 701.592 399.773 702.717 401.147 703.498C402.52 704.279 404.073 704.691 405.653 704.692V704.692ZM497.585 676.999H476.829V656.239H497.585V676.999ZM497.585 642.392H476.829V600.863H497.585V642.392Z" fill="#F86D70"/>
<path d="M233.76 236.832C233.65 238.923 234.69 240.834 235.3 242.834C236.309 246.699 236.208 250.77 235.01 254.58C233.89 258.581 232.011 262.813 233.44 266.725C233.77 267.645 234.27 268.486 234.57 269.406C235.81 273.208 233.51 277.21 230.991 280.321L240.879 287.254C242.323 288.452 244.04 289.273 245.878 289.645C247.728 289.865 249.877 288.875 250.257 287.054C250.387 286.434 250.257 285.784 250.377 285.153C250.499 284.338 250.814 283.564 251.296 282.896C251.777 282.227 252.412 281.684 253.147 281.312C254.632 280.583 256.288 280.275 257.936 280.421C264.005 280.751 269.164 284.743 274.683 287.304C278.321 288.881 282.092 290.133 285.951 291.046C288.14 291.616 290.57 292.136 292.549 291.046C294.529 289.955 295.439 287.424 295.289 285.133C294.982 282.855 294.271 280.649 293.189 278.62C292.098 276.594 291.441 274.362 291.26 272.067C291.26 268.706 293.099 265.645 293.719 262.343C294.589 257.651 292.819 252.879 290.66 248.617C288.5 244.355 285.881 240.253 284.831 235.611C284.622 234.204 284.257 232.825 283.741 231.499C283.241 230.493 282.563 229.585 281.741 228.818C278.032 225.147 272.743 223.406 267.564 223.026C262.385 222.646 257.156 223.496 252.017 224.386C250.056 224.666 248.125 225.125 246.248 225.757C243.565 226.824 241.018 228.204 238.659 229.869C236.32 231.489 233.91 233.86 233.76 236.832Z" fill="#464353"/>
<g opacity="0.1">
<path opacity="0.1" d="M291.208 270.016C291.208 270.316 291.208 270.616 291.268 270.906C291.578 267.975 293.118 265.224 293.668 262.293C293.88 261.118 293.944 259.921 293.858 258.731C293.858 259.251 293.758 259.731 293.668 260.292C293.038 263.593 291.168 266.654 291.208 270.016Z" fill="black"/>
<path opacity="0.1" d="M235.955 246.833C236.072 244.808 235.846 242.779 235.285 240.83C234.693 239.312 234.209 237.754 233.835 236.168C233.835 236.378 233.755 236.578 233.745 236.788C233.635 238.879 234.675 240.79 235.285 242.791C235.671 244.106 235.896 245.463 235.955 246.833V246.833Z" fill="black"/>
<path opacity="0.1" d="M295.179 284.593C295.109 285.487 294.83 286.352 294.364 287.118C293.899 287.884 293.26 288.531 292.499 289.005C290.499 290.095 288.09 289.575 285.9 289.005C282.04 288.093 278.269 286.837 274.632 285.253C269.113 282.702 263.954 278.71 257.885 278.38C256.238 278.234 254.582 278.541 253.096 279.27C252.362 279.643 251.727 280.186 251.245 280.854C250.763 281.523 250.449 282.297 250.327 283.112C250.257 283.742 250.327 284.392 250.207 285.013C249.817 286.834 247.677 287.824 245.828 287.604C243.99 287.232 242.272 286.41 240.829 285.213L231.94 278.97C231.61 279.42 231.28 279.86 230.94 280.271L240.829 287.214C242.272 288.411 243.99 289.233 245.828 289.605C247.677 289.825 249.827 288.834 250.207 287.014C250.337 286.393 250.207 285.743 250.327 285.113C250.449 284.298 250.763 283.524 251.245 282.855C251.727 282.187 252.362 281.644 253.096 281.271C254.582 280.542 256.238 280.234 257.885 280.381C263.954 280.711 269.113 284.703 274.632 287.254C278.269 288.838 282.04 290.094 285.9 291.005C288.09 291.576 290.519 292.096 292.499 291.005C294.479 289.915 295.389 287.384 295.239 285.093C295.229 284.923 295.199 284.763 295.179 284.593Z" fill="black"/>
<path opacity="0.1" d="M234.574 269.341C234.697 269.743 234.788 270.155 234.844 270.572C234.999 269.488 234.907 268.383 234.574 267.34C234.274 266.42 233.774 265.58 233.444 264.659C233.204 263.991 233.049 263.295 232.984 262.588C232.837 263.963 232.994 265.353 233.444 266.66C233.774 267.58 234.274 268.431 234.574 269.341Z" fill="black"/>
</g>
<path d="M246.298 648.961C246.23 649.246 246.068 649.499 245.838 649.681C245.595 649.808 245.322 649.866 245.049 649.851C241.489 649.931 237.93 649.851 234.381 650.101C231.022 650.391 227.653 651.102 224.303 650.722C223.232 650.759 222.175 650.463 221.28 649.873C220.384 649.284 219.694 648.43 219.305 647.43C219.093 646.994 218.906 646.546 218.745 646.089C217.822 643.731 217.357 641.219 217.375 638.686C217.375 638.016 217.375 637.366 217.375 636.685C217.331 635.952 217.234 635.223 217.085 634.504C216.782 633.681 216.818 632.77 217.185 631.973C218.605 629.382 222.034 628.862 224.673 628.662C230.788 628.201 236.937 628.653 242.919 630.002C243.389 632.303 243.919 634.584 244.479 636.865C244.892 638.54 245.332 640.207 245.798 641.868C246.112 642.896 246.365 643.942 246.558 644.999C246.806 646.321 246.716 647.683 246.298 648.961Z" fill="#464353"/>
<path opacity="0.06" d="M246.299 648.972C246.231 649.256 246.069 649.51 245.839 649.692C245.596 649.818 245.323 649.877 245.049 649.862C241.49 649.942 237.931 649.862 234.382 650.112C231.023 650.402 227.654 651.112 224.304 650.732C223.233 650.77 222.176 650.474 221.281 649.884C220.385 649.294 219.695 648.441 219.305 647.441C219.094 647.005 218.907 646.557 218.746 646.1H220.025C224.234 646.1 228.453 645.95 232.662 645.95C233.932 645.95 235.212 645.89 236.471 645.74C237.731 645.59 238.761 645.38 239.911 645.24C241.632 645.075 243.361 645.005 245.089 645.03H246.509C246.769 646.341 246.697 647.696 246.299 648.972Z" fill="black"/>
<path d="M319.928 630.395C318.813 631.696 317.39 632.697 315.788 633.305C308.669 636.305 300.44 634.955 293.091 632.515C291.447 631.904 289.759 631.419 288.042 631.065C286.475 630.845 284.894 630.734 283.312 630.735C282.182 630.735 281.053 630.645 279.923 630.575C277.063 630.394 274.213 630.114 271.374 629.834C269.394 629.689 267.428 629.392 265.494 628.944C264.945 628.803 264.416 628.588 263.925 628.304V628.304C263.505 628.12 263.147 627.82 262.892 627.439C262.637 627.058 262.496 626.612 262.485 626.154C262.565 624.884 263.885 624.154 265.045 623.604C275.333 619.153 286.512 617.223 297.61 615.672C298.739 615.484 299.839 615.148 300.88 614.672C302.13 614.172 302.26 614.992 302.88 615.912C303.173 616.338 303.508 616.734 303.88 617.093C305.085 618.182 306.501 619.012 308.039 619.533C310.739 620.533 313.628 620.803 316.328 621.753C317.145 622.037 317.926 622.413 318.658 622.873C319.303 623.225 319.86 623.72 320.285 624.32C320.71 624.92 320.992 625.609 321.11 626.335C321.228 627.061 321.178 627.804 320.964 628.508C320.751 629.211 320.379 629.857 319.878 630.395H319.928Z" fill="#464353"/>
<path opacity="0.06" d="M319.949 630.389C318.834 631.691 317.411 632.692 315.809 633.3C308.691 636.301 300.462 634.951 293.113 632.51C291.469 631.899 289.781 631.414 288.064 631.059C286.497 630.839 284.917 630.729 283.335 630.729C282.205 630.729 281.075 630.639 279.945 630.569C280.865 629.698 281.805 628.848 282.765 628.028C283.46 627.377 284.262 626.849 285.134 626.467C286.221 626.11 287.379 626.031 288.504 626.237C294.223 627.027 299.362 631.039 305.131 630.689C307.819 630.379 310.419 629.539 312.78 628.218C314.7 627.435 316.412 626.216 317.779 624.656C318.192 624.118 318.507 623.512 318.709 622.865C319.355 623.217 319.911 623.712 320.336 624.312C320.761 624.912 321.043 625.602 321.161 626.328C321.279 627.054 321.229 627.797 321.015 628.501C320.802 629.205 320.43 629.851 319.929 630.389H319.949Z" fill="black"/>
<path d="M317.915 456.53C316.916 458.53 315.636 460.701 313.476 461.322C310.337 462.222 307.318 459.401 305.948 456.439C304.081 452.093 303.729 447.244 304.948 442.673C305.518 440.362 306.388 438.141 306.878 435.82C307.231 433.867 307.445 431.891 307.518 429.908C307.813 426.949 307.743 423.965 307.308 421.024C305.698 412.43 298.31 406.017 295.85 397.573C294.611 393.361 294.671 388.879 294.741 384.488C294.717 383.377 294.832 382.268 295.081 381.186C295.155 380.891 295.255 380.603 295.381 380.326C297.03 376.664 301.919 376.164 305.318 374.033C307.198 372.862 311.467 369.091 313.046 372.532C313.388 373.299 313.642 374.101 313.806 374.923C314.456 377.985 314.196 381.576 314.356 384.468C314.966 395.392 317.685 406.297 316.426 417.162C316.125 419.014 315.978 420.888 315.986 422.765C316.256 427.467 319.195 431.538 320.545 436.04C322.624 442.813 320.955 450.187 317.915 456.53Z" fill="#FBBEBE"/>
<path opacity="0.1" d="M313.886 374.938C313.143 374.668 312.329 374.668 311.586 374.938L304.819 376.939C302.448 377.572 300.136 378.412 297.912 379.45C296.941 379.927 296.02 380.5 295.163 381.161C295.237 380.866 295.338 380.578 295.463 380.3C297.112 376.639 302 376.139 305.399 374.008C307.278 372.837 311.546 369.065 313.126 372.507C313.47 373.286 313.725 374.102 313.886 374.938V374.938Z" fill="black"/>
<path d="M314.296 374.191C313.888 373.944 313.428 373.794 312.953 373.756C312.477 373.718 311.999 373.792 311.557 373.971L304.789 375.972C302.417 376.605 300.105 377.445 297.88 378.483C296.699 379.058 295.595 379.777 294.591 380.624C291.432 375.132 290.592 368.619 290.012 362.316C289.692 358.645 289.452 354.963 289.312 351.311C289.155 348.683 289.209 346.047 289.472 343.428C289.852 340.426 290.722 337.495 291.262 334.514C291.583 332.768 291.79 331.004 291.882 329.231C292.141 325.359 291.963 321.469 291.352 317.636C290.77 313.562 289.841 309.546 288.572 305.631C287.932 303.84 287.163 302.109 286.463 300.349L286.223 299.728C284.959 296.501 283.927 293.188 283.134 289.814C282.814 288.433 282.794 286.983 281.734 286.042C282.729 285.922 283.732 285.882 284.733 285.922C284.933 285.922 285.133 285.922 285.333 285.922C289.44 286.181 293.397 287.565 296.77 289.924C301.115 293.061 304.417 297.432 306.248 302.47C308.358 308.102 308.708 314.225 308.978 320.237C309.517 332.056 309.851 343.881 309.977 355.713C309.977 357.984 310.077 360.405 311.377 362.276C311.742 362.737 312.076 363.222 312.377 363.727C312.847 364.727 312.777 365.838 313.157 366.848C313.436 367.455 313.753 368.043 314.106 368.609C314.554 369.466 314.803 370.412 314.836 371.379C314.869 372.345 314.685 373.306 314.296 374.191Z" fill="#464353"/>
<path d="M247.747 256.753C246.747 256.424 245.747 256.075 244.747 255.756L246.827 255.916C247.173 256.148 247.483 256.43 247.747 256.753Z" fill="#FBBEBE"/>
<path d="M288.714 292.855C288.514 293.535 288.314 294.216 288.094 294.856C287.586 296.5 286.968 298.108 286.244 299.669C285.111 302.233 283.507 304.561 281.515 306.533C280.857 307.226 280.05 307.76 279.155 308.094C278.398 308.287 277.616 308.362 276.836 308.314C274.169 308.314 271.503 308.274 268.837 308.194C266.761 308.217 264.689 308.012 262.658 307.583C260.422 306.973 258.297 306.014 256.359 304.742C248.89 300.119 242.751 293.075 240.122 284.73C239.792 283.67 239.562 282.399 240.292 281.569C241.01 280.982 241.915 280.673 242.841 280.698H242.961C245.111 280.418 247.182 279.707 249.05 278.607C250.261 277.987 251.236 276.989 251.83 275.765C252.235 274.314 252.204 272.776 251.74 271.343L249.52 261.257C249.289 259.642 248.683 258.103 247.751 256.765C248.4 256.995 249.05 257.205 249.75 257.385C255.929 259.056 262.688 258.045 268.747 260.236C271.067 261.087 273.386 262.618 274.086 264.999C275.256 269.001 271.347 273.154 272.466 277.156C273.216 279.878 275.986 281.448 278.465 282.719L280.135 283.57L284.764 285.921L285.404 286.241L285.504 286.291C286.964 287.032 288.504 287.952 289.014 289.523C289.231 290.64 289.127 291.795 288.714 292.855V292.855Z" fill="#FBBEBE"/>
<path opacity="0.1" d="M300.908 316.338C300.738 318.896 300.115 321.403 299.068 323.742C297.061 327.788 295.985 332.232 295.919 336.748C295.149 350.255 290.02 366.333 297.369 377.679C297.548 377.959 297.728 378.239 297.898 378.53C296.718 379.104 295.613 379.824 294.609 380.671C291.45 375.178 290.61 368.665 290.03 362.361C289.71 358.69 289.47 355.008 289.33 351.356C289.174 348.728 289.227 346.091 289.49 343.472C289.87 340.47 290.74 337.539 291.28 334.557C291.601 332.812 291.809 331.047 291.9 329.275C292.159 325.402 291.981 321.512 291.37 317.679C290.789 313.605 289.859 309.588 288.591 305.673C287.951 303.882 287.181 302.151 286.481 300.39L286.241 299.77C285.108 302.334 283.504 304.662 281.512 306.633C280.855 307.326 280.048 307.86 279.153 308.194C278.396 308.388 277.613 308.462 276.833 308.414C274.167 308.414 271.501 308.374 268.835 308.294C266.76 308.317 264.688 308.112 262.657 307.684C260.421 307.073 258.295 306.115 256.358 304.842C248.89 300.22 242.751 293.176 240.122 284.832C239.792 283.772 239.562 282.501 240.292 281.671C241.01 281.084 241.915 280.775 242.841 280.8H242.961L251.959 291.936C252.991 293.114 253.865 294.423 254.558 295.828C254.693 296.299 254.973 296.716 255.358 297.018C255.671 297.161 256.015 297.223 256.358 297.198C264.806 297.198 276.063 297.198 284.512 297.198C284.539 295.7 284.106 294.23 283.272 292.986C283.012 293.046 282.662 293.066 283.202 292.906C282.713 289.658 281.665 286.52 280.103 283.632C280.009 283.433 279.906 283.239 279.793 283.051C279.121 282.061 278.621 280.966 278.313 279.81C279.38 279.469 280.526 279.469 281.592 279.81C282.822 280.34 283.462 281.671 284.002 282.901C284.462 283.902 284.921 284.972 285.331 286.023C285.331 286.133 285.431 286.253 285.471 286.363C286.343 288.433 286.903 290.621 287.131 292.856C287.191 293.677 287.391 294.717 288.071 294.987C288.178 295.036 288.293 295.063 288.411 295.067C289.115 294.81 289.879 294.767 290.607 294.945C291.335 295.123 291.994 295.514 292.5 296.068C293.483 297.195 294.17 298.55 294.499 300.01C294.824 301.469 295.3 302.891 295.919 304.252C297.209 306.713 295.239 307.814 297.568 309.325C298.658 309.924 299.595 310.766 300.308 311.786C300.967 313.207 301.176 314.795 300.908 316.338V316.338Z" fill="black"/>
<path opacity="0.1" d="M242.844 630.053C243.314 632.354 243.843 634.635 244.403 636.916L244.343 637.056C239.774 635.055 235.095 632.964 230.107 632.524C225.478 632.124 220.449 633.374 217.3 636.736C217.256 636.003 217.159 635.274 217.01 634.555C216.706 633.731 216.742 632.821 217.11 632.024C218.529 629.433 221.959 628.912 224.598 628.712C230.713 628.251 236.862 628.703 242.844 630.053Z" fill="black"/>
<path opacity="0.1" d="M282.211 294.832C282.681 294.832 282.511 294.832 282.281 294.912C282.051 294.992 281.671 294.992 282.211 294.832Z" fill="black"/>
<path opacity="0.1" d="M303.925 617.092C299.467 619.935 295.277 623.178 291.408 626.783C290.285 627.986 288.945 628.966 287.459 629.673C285.924 630.167 284.303 630.334 282.7 630.163C276.411 629.908 270.142 629.287 263.925 628.303V628.303C263.505 628.119 263.147 627.818 262.892 627.437C262.637 627.057 262.496 626.611 262.485 626.153C262.565 624.883 263.885 624.153 265.044 623.603C275.332 619.152 286.509 617.222 297.607 615.672C298.736 615.484 299.835 615.148 300.876 614.672C302.126 614.172 302.256 614.992 302.875 615.912C303.184 616.341 303.536 616.736 303.925 617.092V617.092Z" fill="black"/>
<path d="M230.6 283.209C232.07 284.519 233.75 285.58 235.239 286.85C239.238 290.242 241.758 294.984 244.237 299.606C242.767 300.138 241.177 300.245 239.648 299.916C238.862 304.355 238.995 308.907 240.038 313.292C238.038 314.666 236.484 316.596 235.569 318.845C234.859 321.127 234.37 323.472 234.11 325.848C232.67 336.259 231.224 346.671 229.771 357.082C229.741 358.101 229.392 359.085 228.771 359.893C228.493 360.118 228.239 360.369 228.011 360.644C227.705 361.317 227.584 362.059 227.661 362.795C227.601 363.525 227.121 364.396 226.391 364.295C226.037 364.211 225.722 364.006 225.502 363.715C224.772 362.942 224.103 362.112 223.502 361.234C217.603 372.559 214.764 384.765 211.645 397.15C209.415 405.974 207.186 414.898 207.076 424.003C207.106 428.31 207.376 432.612 207.886 436.888L208.766 445.672C209.475 452.736 210.185 459.809 210.955 466.872C211.455 471.354 211.955 475.876 213.564 480.098C215.964 486.511 213.304 493.744 214.324 500.527C215.124 505.84 216.714 511.332 215.114 516.454C214.474 518.505 213.354 520.376 212.515 522.357C210.455 527.279 210.245 532.752 210.065 538.084C209.741 542.758 209.916 547.454 210.585 552.091C211.445 556.883 213.374 561.575 212.995 566.417C212.465 573.31 207.386 579.203 206.766 586.086C206.276 591.578 208.686 596.881 211.275 601.753C213.184 605.345 210.525 609.987 209.515 613.939C207.516 621.682 210.845 629.786 214.924 636.659C215.028 636.895 215.212 637.086 215.444 637.199C215.914 637.369 216.334 636.909 216.644 636.519C219.713 632.577 225.152 631.086 230.141 631.517C235.129 631.947 239.798 634.008 244.377 636.049L250.866 621.592C251.965 619.141 253.085 616.49 252.535 613.859C252.145 611.978 250.936 610.387 250.076 608.666C248.076 604.604 247.976 599.872 247.956 595.32L247.836 569.608C252.895 563.246 255.985 555.682 257.934 547.779C260.925 558.895 261.131 570.579 258.534 581.794C258.053 583.49 257.719 585.224 257.534 586.976C257.144 594.11 262.733 600.142 264.223 607.126C264.367 607.66 264.408 608.217 264.343 608.766C264.175 609.442 263.894 610.085 263.513 610.667C260.833 615.529 261.123 621.422 261.513 626.965C268.524 628.186 275.608 628.945 282.718 629.236C284.321 629.396 285.94 629.229 287.477 628.745C288.964 628.035 290.303 627.05 291.426 625.844C295.966 621.571 300.95 617.798 306.293 614.589C303.309 609.635 299.133 605.507 294.146 602.583C295.755 600.212 299.424 600.402 301.564 598.502C302.638 597.438 303.34 596.055 303.563 594.56C304.363 590.638 303.374 586.556 302.384 582.704C300.464 575.121 298.535 567.508 295.385 560.344C293.961 557.4 292.706 554.377 291.626 551.29C289.007 542.666 290.836 533.282 288.857 524.468C288.217 521.647 287.187 518.735 287.907 515.924C289.007 511.592 293.906 509.021 294.985 504.679C298.855 489.222 299.544 473.205 301.744 457.428C302.236 454.414 302.5 451.367 302.534 448.314C302.534 445.122 301.964 441.961 301.734 438.779C300.834 426.043 304.903 413.338 303.863 400.612C303.198 392.77 300.616 385.211 296.345 378.602C288.997 367.247 294.126 351.18 294.895 337.673C294.953 333.157 296.026 328.712 298.035 324.667C299.091 322.331 299.717 319.823 299.884 317.264C300.193 315.687 299.997 314.052 299.324 312.592C298.621 311.568 297.686 310.725 296.595 310.131C294.266 308.61 296.235 307.51 294.945 305.049C294.325 303.688 293.849 302.266 293.526 300.807C293.199 299.349 292.511 297.997 291.526 296.875C291.021 296.321 290.362 295.93 289.634 295.752C288.906 295.574 288.141 295.617 287.437 295.874C286.487 295.874 286.227 294.614 286.148 293.663C285.878 290.182 284.438 286.91 283.028 283.709C282.488 282.478 281.849 281.148 280.619 280.618C279.548 280.282 278.4 280.282 277.33 280.618C277.639 281.778 278.143 282.877 278.819 283.869C280.552 286.911 281.705 290.25 282.218 293.713C281.219 294.014 283.218 293.713 282.218 293.713C283.114 294.962 283.574 296.47 283.528 298.005C275.09 298.005 263.833 298.005 255.385 298.005C255.041 298.033 254.697 297.97 254.385 297.825C254 297.521 253.717 297.105 253.575 296.635C252.888 295.229 252.013 293.924 250.976 292.753L241.078 280.537C240.858 280.218 240.567 279.955 240.228 279.767C239.82 279.652 239.387 279.652 238.978 279.767C235.769 280.237 233.4 281.578 230.6 283.209Z" fill="#7A28CB"/>
<path opacity="0.1" d="M266.1 448.74C267.807 448.717 269.488 449.152 270.969 450.001C271.704 450.434 272.314 451.051 272.738 451.791C273.162 452.531 273.387 453.369 273.389 454.223C273.279 456.114 271.829 457.615 270.779 459.225C270.13 460.207 269.612 461.27 269.24 462.387C269.125 462.641 269.097 462.926 269.16 463.197C269.28 463.578 269.69 463.768 270.039 463.938C271.311 464.514 272.398 465.433 273.177 466.592C273.955 467.751 274.396 469.105 274.448 470.501C274.358 474.403 270.549 477.565 270.759 481.507C270.855 482.328 270.995 483.143 271.179 483.948C271.637 487.308 271.17 490.729 269.83 493.843C268.62 496.985 266.97 499.936 265.67 503.048C262.161 511.502 261.401 520.867 261.671 530.061C261.881 536.304 259.672 542.247 257.672 548.19C258.802 536.22 259.103 524.185 258.572 512.172C258.432 508.911 258.022 505.829 258.172 502.557C258.412 497.365 261.312 492.642 262.051 487.55C262.471 484.638 262.191 481.677 262.261 478.735C262.401 472.732 264.031 466.809 264.141 460.786C264.281 456.534 263.891 452.152 266.1 448.74Z" fill="black"/>
<path d="M224.386 285.342C222.398 286.333 220.538 287.563 218.847 289.004C217.08 290.761 215.602 292.787 214.468 295.006C213.088 297.523 211.849 300.114 210.759 302.77C209.349 306.211 208.18 310.023 209.149 313.614C210.029 316.866 212.519 319.397 214.238 322.288C215.958 325.18 216.968 328.571 218.287 331.743C220.047 335.974 222.456 339.916 224.196 344.158C225.936 348.4 226.985 353.162 225.886 357.574C225.566 358.875 223.456 359.885 223.456 361.216C223.456 363.417 226.635 365.808 228.745 366.448C231.174 367.198 233.824 366.078 235.813 364.447C239.462 361.556 241.682 357.224 243.322 352.862C245.961 345.859 247.371 338.425 248.64 331.042C249.56 325.62 250.42 320.187 250.91 314.725C251.36 309.803 251.5 304.721 250.2 299.998C248.987 295.664 246.628 291.738 243.371 288.633C240.772 286.132 236.513 282.771 232.734 282.681C229.745 282.671 226.945 283.931 224.386 285.342Z" fill="#464353"/>
<path d="M252.813 405.952C252.705 406.636 252.449 407.288 252.064 407.863C251.679 408.438 251.174 408.923 250.584 409.283C249.404 410.001 248.119 410.528 246.775 410.844C244.095 411.625 241.256 412.345 238.547 411.655C236.417 410.961 234.451 409.841 232.768 408.363L202.495 385.173C200.063 383.448 197.827 381.462 195.827 379.25C194.678 377.822 193.623 376.322 192.667 374.758C191.402 372.968 190.412 370.999 189.728 368.916C189.484 367.999 189.363 367.053 189.368 366.104C189.36 365.207 189.58 364.322 190.008 363.533C190.738 362.313 192.297 362.063 193.577 361.722C197.872 360.611 202.331 360.272 206.744 360.722C207.132 360.703 207.515 360.811 207.836 361.03C208.157 361.248 208.398 361.565 208.524 361.932C209.194 363.163 209.773 364.444 210.373 365.724C211.294 367.908 212.494 369.962 213.942 371.837C215.338 373.355 216.824 374.788 218.391 376.129C221.591 379.13 224.21 382.732 227.619 385.493C231.568 388.684 236.367 390.595 240.866 392.946C245.365 395.297 249.804 398.349 252.064 402.901C252.588 403.83 252.847 404.885 252.813 405.952Z" fill="#FBBEBE"/>
<path opacity="0.1" d="M287.856 244.171C287.857 250.488 285.447 256.567 281.119 261.164C276.79 265.762 270.87 268.531 264.569 268.905C258.268 269.279 252.062 267.231 247.22 263.178C242.379 259.125 239.267 253.375 238.521 247.102C237.775 240.83 239.452 234.509 243.209 229.433C246.965 224.357 252.518 220.908 258.731 219.793C264.943 218.677 271.347 219.979 276.633 223.432C281.919 226.885 285.687 232.228 287.166 238.368C287.625 240.269 287.857 242.217 287.856 244.171V244.171Z" fill="black"/>
<path d="M287.856 243.188C287.857 249.505 285.447 255.583 281.119 260.181C276.79 264.778 270.87 267.547 264.569 267.922C258.268 268.296 252.062 266.247 247.22 262.195C242.379 258.142 239.267 252.392 238.521 246.119C237.775 239.847 239.452 233.526 243.209 228.45C246.965 223.373 252.518 219.925 258.731 218.809C264.943 217.694 271.347 218.996 276.633 222.448C281.919 225.901 285.687 231.244 287.166 237.385C287.625 239.285 287.857 241.233 287.856 243.188V243.188Z" fill="#FBBEBE"/>
<path opacity="0.1" d="M210.373 365.684C209.234 366.414 207.544 366.174 206.134 365.854C200.576 364.614 194.437 363.723 189.368 366.104C189.36 365.207 189.58 364.322 190.008 363.533C190.738 362.313 192.297 362.063 193.577 361.722C197.872 360.611 202.331 360.272 206.744 360.722C207.132 360.703 207.515 360.811 207.836 361.03C208.157 361.248 208.398 361.565 208.524 361.932C209.194 363.123 209.773 364.404 210.373 365.684Z" fill="black"/>
<path d="M199.906 332.006C198.676 336.008 197.666 340.12 195.257 343.512C194.46 344.403 193.861 345.453 193.497 346.593C193.47 347.434 193.332 348.269 193.088 349.074C192.748 349.754 192.028 350.205 191.738 350.905C191.308 351.905 191.868 353.196 191.298 354.136C191.031 354.514 190.711 354.851 190.348 355.137C188.989 356.397 188.649 358.408 188.619 360.269C188.589 362.13 188.769 364.031 188.159 365.781C193.437 362.63 200.156 363.57 206.155 364.911C207.824 365.281 209.894 365.561 210.973 364.221C212.053 362.88 211.433 361.119 211.583 359.509C211.783 357.408 213.223 355.667 214.113 353.756C215.112 351.605 215.452 349.204 216.222 346.963C217.812 342.251 221.221 338.409 223.41 333.957C224.221 332.426 224.704 330.743 224.83 329.015C224.755 326.775 224.17 324.582 223.121 322.602C221.04 317.992 218.565 313.57 215.722 309.386C214.453 307.516 212.263 304.054 210.294 307.045C208.694 309.456 207.694 312.528 206.514 315.169C203.972 320.642 201.765 326.265 199.906 332.006Z" fill="#464353"/>
<path d="M290.138 293.185C287.136 293.392 284.126 292.926 281.328 291.82C278.529 290.714 276.013 288.996 273.962 286.792C273.617 286.478 273.367 286.072 273.242 285.622C273.185 285.037 273.349 284.451 273.702 283.981C274.902 282.13 276.971 280.91 277.931 278.919C278.891 276.928 278.561 274.637 278.651 272.456C278.811 268.544 280.351 264.673 280.481 260.821C280.527 259.835 280.453 258.847 280.261 257.879C279.8 256.442 279.518 254.954 279.421 253.448C279.551 250.516 282.19 248.235 282.63 245.344C283.2 241.662 280.151 238.461 277.081 236.34C274.741 234.716 272.2 233.401 269.523 232.428C267.879 231.839 266.176 231.426 264.444 231.198C261.216 230.761 257.929 231.129 254.876 232.268C253.613 232.745 252.417 233.384 251.317 234.169C250.663 234.583 250.117 235.15 249.728 235.82C249.407 236.574 249.264 237.392 249.308 238.211C249.248 242.303 249.708 246.655 247.758 250.216C246.758 252.127 245.059 253.678 244.229 255.699C243.889 256.539 243.677 257.426 243.599 258.33C243.499 259.267 243.449 260.209 243.449 261.151C243.389 266.423 243.449 271.986 246.128 276.558C247.074 277.94 247.932 279.38 248.698 280.87C249.069 281.623 249.241 282.459 249.197 283.298C249.154 284.137 248.896 284.951 248.448 285.662C247.907 286.31 247.222 286.824 246.448 287.163C244.463 288.116 242.303 288.649 240.103 288.728C237.903 288.807 235.71 288.431 233.661 287.623C236.057 285.351 237.702 282.402 238.377 279.17C239.053 275.938 238.726 272.576 237.44 269.535C236.718 268.306 236.249 266.946 236.061 265.533C236.161 264.26 236.5 263.018 237.061 261.871C238.431 258.112 238.643 254.028 237.67 250.146C237.061 247.765 236.001 245.464 235.811 243.013C235.652 241.163 235.733 239.3 236.051 237.47C236.599 234.197 238.04 231.139 240.215 228.634C242.391 226.129 245.215 224.274 248.378 223.274C248.888 223.104 249.378 222.944 249.938 222.804C252.363 222.265 254.841 222 257.326 222.014C262.875 221.833 268.503 221.673 273.852 223.124C276.992 223.947 279.914 225.45 282.41 227.526C284.182 229.017 285.597 230.887 286.549 232.998C287.069 234.215 287.462 235.482 287.719 236.78C287.949 237.851 288.119 238.931 288.289 240.012C289.498 247.705 290.708 255.548 289.418 263.232C288.909 266.233 288.019 269.235 287.619 272.296C286.649 279.349 288.399 286.362 290.138 293.185Z" fill="#464353"/>
<path d="M254.594 303.066C255.621 303.066 256.453 302.233 256.453 301.205C256.453 300.177 255.621 299.344 254.594 299.344C253.567 299.344 252.734 300.177 252.734 301.205C252.734 302.233 253.567 303.066 254.594 303.066Z" fill="white"/>
<path d="M286.012 302.18C287.039 302.18 287.872 301.348 287.872 300.321C287.872 299.294 287.039 298.462 286.012 298.462C284.985 298.462 284.153 299.294 284.153 300.321C284.153 301.348 284.985 302.18 286.012 302.18Z" fill="white"/>
<path opacity="0.1" d="M254.617 207.142L250.618 199.589C250.871 199.287 251.149 199.006 251.447 198.749C252.025 198.393 252.701 198.231 253.377 198.288L254.617 207.142Z" fill="black"/>
<path opacity="0.1" d="M265.637 197.953L261.108 204.656L258.529 197.303C259.63 196.83 260.821 196.604 262.018 196.643C263.289 196.875 264.512 197.318 265.637 197.953V197.953Z" fill="black"/>
<g opacity="0.1">
<path opacity="0.1" d="M248.448 283.637C247.907 284.286 247.222 284.799 246.448 285.138C242.903 286.835 238.859 287.173 235.081 286.088C234.642 286.623 234.168 287.127 233.661 287.599C235.71 288.407 237.903 288.783 240.103 288.704C242.303 288.625 244.463 288.092 246.448 287.139C247.222 286.8 247.907 286.287 248.448 285.638C248.792 285.139 249.027 284.572 249.137 283.976C249.247 283.379 249.23 282.766 249.088 282.177C248.988 282.706 248.769 283.205 248.448 283.637Z" fill="black"/>
<path opacity="0.1" d="M237.588 250.15C237.915 251.461 238.106 252.802 238.158 254.152C238.273 252.134 238.081 250.11 237.588 248.149C236.978 245.768 235.919 243.467 235.729 241.016C235.729 240.706 235.729 240.396 235.679 240.076C235.631 241.056 235.647 242.039 235.729 243.017C235.919 245.468 236.978 247.769 237.588 250.15Z" fill="black"/>
<path opacity="0.1" d="M289.348 263.232C289.772 260.585 289.953 257.906 289.888 255.227C289.853 257.238 289.672 259.245 289.348 261.23C288.838 264.232 287.948 267.234 287.548 270.296C287.342 271.938 287.265 273.594 287.319 275.249C287.346 274.262 287.423 273.276 287.548 272.297C287.948 269.235 288.838 266.263 289.348 263.232Z" fill="black"/>
<path opacity="0.1" d="M237.385 267.519C236.861 266.534 236.439 265.499 236.125 264.429C236.04 264.789 236 265.158 236.005 265.529C236.193 266.941 236.662 268.301 237.385 269.529C238.119 271.206 238.542 273.002 238.634 274.83C238.815 272.328 238.387 269.819 237.385 267.519V267.519Z" fill="black"/>
<path opacity="0.1" d="M280.258 257.81C280.346 258.267 280.409 258.728 280.448 259.191C280.448 259.041 280.448 258.901 280.448 258.751C280.494 257.765 280.42 256.777 280.228 255.808C280.009 254.757 279.65 253.716 279.481 252.655C279.431 252.893 279.401 253.134 279.391 253.376C279.498 254.884 279.789 256.373 280.258 257.81V257.81Z" fill="black"/>
<path opacity="0.1" d="M273.954 284.729C273.8 284.568 273.657 284.397 273.524 284.218C273.278 284.619 273.176 285.092 273.234 285.559C273.359 286.009 273.609 286.415 273.954 286.73C276.004 288.933 278.52 290.651 281.318 291.757C284.116 292.863 287.126 293.329 290.127 293.122C289.957 292.462 289.787 291.812 289.627 291.121C286.708 291.256 283.795 290.754 281.088 289.65C278.382 288.546 275.948 286.867 273.954 284.729V284.729Z" fill="black"/>
<path opacity="0.1" d="M282.613 243.418C282.608 243.381 282.608 243.344 282.613 243.308C283.182 239.626 280.133 236.425 277.064 234.304C274.723 232.68 272.183 231.365 269.506 230.392C267.861 229.803 266.159 229.39 264.427 229.162C261.198 228.725 257.912 229.093 254.859 230.232C253.596 230.709 252.399 231.348 251.3 232.133C250.645 232.547 250.1 233.113 249.71 233.784C249.39 234.538 249.246 235.356 249.29 236.175C249.29 236.865 249.29 237.555 249.29 238.256V238.175C249.246 237.357 249.39 236.539 249.71 235.784C250.1 235.114 250.645 234.548 251.3 234.134C252.399 233.349 253.596 232.71 254.859 232.233C257.912 231.094 261.198 230.726 264.427 231.162C266.159 231.391 267.861 231.804 269.506 232.393C272.183 233.366 274.723 234.68 277.064 236.305C279.613 238.025 282.123 240.507 282.613 243.418Z" fill="black"/>
<path opacity="0.1" d="M247.771 248.212C246.772 250.124 245.072 251.674 244.242 253.696C243.903 254.537 243.69 255.424 243.612 256.327C243.512 257.264 243.462 258.206 243.462 259.149C243.462 259.999 243.462 260.86 243.462 261.72C243.462 261.53 243.462 261.34 243.462 261.15C243.462 260.208 243.512 259.266 243.612 258.328C243.69 257.425 243.903 256.538 244.242 255.697C245.072 253.696 246.732 252.125 247.771 250.214C249.381 247.212 249.351 243.76 249.321 240.328C249.454 243.043 248.922 245.75 247.771 248.212V248.212Z" fill="black"/>
</g>
<path opacity="0.1" d="M287.647 236.827C287.51 237.023 287.348 237.201 287.167 237.358C286.815 237.648 286.42 237.884 285.998 238.058C283.088 239.319 283.208 235.206 281.689 233.795C280.714 233.076 279.518 232.722 278.309 232.795C275.383 232.648 272.454 232.518 269.521 232.405C264.633 232.224 259.754 232.134 254.875 232.244C252.535 232.284 250.203 232.381 247.876 232.535C245.177 232.715 242.278 233.065 239.978 234.346C239.191 234.779 238.479 235.337 237.869 235.997C237.319 236.597 236.739 237.358 235.979 237.498C236.527 234.224 237.968 231.165 240.144 228.66C242.319 226.154 245.144 224.299 248.306 223.299C253.426 219.482 259.822 217.794 266.157 218.586C272.491 219.379 278.275 222.591 282.298 227.552C284.071 229.043 285.485 230.913 286.438 233.025C286.973 234.246 287.378 235.521 287.647 236.827V236.827Z" fill="black"/>
<path d="M286.017 236.065C283.107 237.326 283.227 233.214 281.708 231.803C280.733 231.084 279.537 230.73 278.328 230.803C268.197 230.136 258.036 230.049 247.896 230.543C244.286 230.783 240.327 231.323 237.898 234.004C237.278 234.684 236.628 235.565 235.698 235.535C235.388 233.534 235.168 231.453 235.018 229.402C234.928 228.634 234.968 227.856 235.138 227.101C235.388 226.241 235.958 225.51 236.248 224.67C236.534 223.601 236.635 222.491 236.548 221.388C236.592 217.307 237.688 213.306 239.73 209.772C241.773 206.239 244.692 203.293 248.205 201.219C249.087 200.788 249.905 200.236 250.635 199.579C250.888 199.277 251.166 198.996 251.465 198.738C252.042 198.382 252.718 198.221 253.394 198.278C253.874 198.278 254.394 198.278 254.814 198.278C256.107 198.136 257.371 197.798 258.563 197.278C259.664 196.805 260.855 196.579 262.052 196.617C263.323 196.85 264.546 197.293 265.671 197.928C266.212 198.189 266.778 198.393 267.361 198.538C268.271 198.748 269.211 198.738 270.12 198.918C271.594 199.294 272.993 199.916 274.259 200.759C275.77 201.575 277.168 202.584 278.418 203.761C279.778 205.315 280.866 207.087 281.638 209.003C282.962 211.65 283.969 214.443 284.637 217.327C285.447 221.468 285.047 225.95 286.966 229.712C288.136 232.073 289.206 234.694 286.017 236.065Z" fill="#FED253"/>
<path opacity="0.1" d="M235.324 232.941C235.324 232.941 256.049 214.073 286.912 229.72C286.912 229.72 252.07 221.786 235.324 232.941Z" fill="black"/>
<path d="M9.49068 329.346C6.67133 324.724 2.43232 320.492 3.09216 315.249C10.8504 316.14 18.2086 314.249 25.317 310.957C32.4253 307.666 39.0238 303.394 45.6823 299.202C48.3017 297.551 50.911 295.93 53.5104 294.43C57.6295 292.069 61.7185 289.427 65.9076 287.116C71.9062 283.815 78.0247 281.114 84.7632 280.593C85.9837 280.498 87.2085 280.468 88.4323 280.503C96.7304 280.663 105.328 282.894 112.627 279.173L113.077 278.933C117.216 276.662 120.225 272.8 123.774 269.668C126.326 267.46 129.104 265.528 132.062 263.906C137.451 260.904 143.29 258.503 148.798 255.672C150.208 254.945 151.547 254.088 152.797 253.111L153.737 252.36L153.947 252.18C154.177 251.99 154.407 251.8 154.627 251.6L155.057 251.22L155.497 250.82L155.837 250.499L156.387 249.979L156.446 249.909L157.316 249.049L157.666 248.699L158.276 248.068L158.636 247.708C159.246 247.078 159.856 246.438 160.476 245.817C161.095 245.197 161.935 244.357 162.685 243.666L163.405 243.026L163.615 242.846L164.195 242.366L164.465 242.136L165.034 241.695L165.314 241.475C165.594 241.265 165.884 241.065 166.174 240.865C166.441 240.68 166.722 240.516 167.014 240.375L165.144 235.843L170.523 233.622L244.706 413.755L239.317 415.976L196.887 312.928L196.587 313.228C186.758 322.934 174.718 330.103 161.505 334.118H161.425C154.037 336.349 145.769 337.93 139.55 342.072C137.345 343.506 135.429 345.342 133.902 347.484C132.442 349.565 131.422 351.936 129.903 353.937C129.613 354.307 129.293 354.668 128.973 355.008C127.155 356.811 125.143 358.408 122.974 359.77L122.024 360.42C115.583 364.956 108.872 369.095 101.929 372.816C97.9225 374.903 93.7449 376.643 89.4421 378.018C86.3128 379.019 83.0836 379.749 79.9543 380.74C77.8493 381.377 75.8051 382.201 73.8457 383.201C68.5469 385.972 64.4779 390.314 60.6288 394.946C57.2596 399.008 54.0603 403.31 50.3612 407.012C48.0417 409.313 44.5125 411.494 41.7132 410.143L41.1433 409.813C41.2333 409.663 41.3033 409.513 41.3833 409.353C43.5927 404.721 40.8734 398.998 37.2142 395.286C36.8343 394.896 36.4444 394.516 36.0445 394.156C35.6446 393.796 34.9248 393.155 34.3549 392.655C31.2256 389.964 27.8964 387.463 25.7269 383.991C24.071 381.075 22.9471 377.887 22.4077 374.577C21.4079 369.865 20.7381 365.012 18.1787 361C16.499 358.349 13.9996 356.088 12.18 353.547C11.0299 352.043 10.2738 350.276 9.98056 348.405C9.57066 345.153 11.0803 341.972 11.6502 338.73C11.8197 337.847 11.8901 336.948 11.8601 336.049C11.6513 333.65 10.8359 331.343 9.49068 329.346V329.346Z" fill="url(#paint0_linear)"/>
<path d="M237.435 414.42L242.731 412.235L169.784 235.129L164.488 237.314L237.435 414.42Z" fill="#D6D8E1"/>
<path d="M19.9638 360.365C22.4732 364.317 23.1431 369.079 24.1129 373.71C24.6507 376.967 25.7574 380.102 27.3821 382.974C29.5216 386.386 32.7908 388.847 35.8601 391.488C36.42 391.978 36.9799 392.488 37.5197 392.969C37.9096 393.319 38.2995 393.699 38.6695 394.069C42.2686 397.721 44.938 403.353 42.7685 407.905C42.7019 408.06 42.6251 408.21 42.5386 408.355C42.7142 408.475 42.8979 408.582 43.0884 408.675C45.8478 410.016 49.317 407.875 51.5965 405.604C55.2356 401.963 58.3849 397.741 61.6941 393.749C65.4732 389.187 69.4823 384.915 74.6911 382.194C76.6139 381.209 78.6216 380.398 80.6897 379.773C83.759 378.773 86.9382 378.062 90.0175 377.102C94.247 375.748 98.3541 374.038 102.295 371.99C109.133 368.327 115.743 364.255 122.09 359.795L123.03 359.154C125.161 357.818 127.139 356.251 128.928 354.482C129.248 354.142 129.558 353.792 129.848 353.422C131.388 351.421 132.398 349.13 133.847 347.079C135.351 344.972 137.236 343.167 139.406 341.757C145.525 337.685 153.643 336.125 160.911 333.934H160.991C173.979 329.98 185.815 322.932 195.483 313.395C196.284 312.725 196.883 311.845 197.213 310.854C197.523 309.443 196.763 308.043 196.033 306.802C195.183 305.341 194.353 303.881 193.533 302.4C189.846 295.685 186.555 288.761 183.676 281.661C183.046 280.101 182.436 278.55 181.846 276.979C180.333 272.978 178.953 268.919 177.707 264.804C177.297 263.444 176.897 262.073 176.517 260.702C176.447 260.442 176.367 260.162 176.297 259.862C174.638 253.189 172.418 237.573 165.58 242.245C163.546 243.7 161.655 245.344 159.931 247.157C158.602 248.507 157.302 249.898 155.932 251.238C154.817 252.336 153.638 253.368 152.403 254.33C151.149 255.29 149.811 256.134 148.404 256.851C142.975 259.632 137.237 261.963 131.948 264.944C129.035 266.537 126.301 268.435 123.79 270.607C120.3 273.688 117.341 277.49 113.272 279.72L112.832 279.961C105.654 283.612 97.2058 281.421 89.0377 281.261C87.8373 281.231 86.636 281.261 85.4386 281.351C78.8101 281.851 72.7515 284.513 66.8929 287.764C62.7738 290.045 58.7548 292.626 54.7057 294.957C52.1463 296.428 49.5869 298.018 47.0075 299.649C40.469 303.771 33.8406 308.093 27.0122 311.214C20.0138 314.395 12.7855 316.296 5.15726 315.426C4.50742 320.578 8.66645 324.74 11.4458 329.282C12.7807 331.234 13.5899 333.498 13.7953 335.854C13.832 336.736 13.7683 337.619 13.6053 338.486C13.0454 341.677 11.6058 344.798 11.9657 348.01C12.2494 349.841 12.9885 351.571 14.1152 353.042C15.8548 355.533 18.3042 357.764 19.9638 360.365Z" fill="#464353"/>
<path d="M223.223 381.201C223.223 381.201 231.981 388.845 240.859 392.917C249.737 396.988 243.858 411.595 243.858 411.595C243.858 411.595 234.45 413.756 227.862 404.592C221.273 395.428 223.223 381.201 223.223 381.201Z" fill="#FBBEBE"/>
<path d="M695.16 511.311C695.16 511.311 671.965 541.854 652.72 542.104C633.474 542.354 622.177 554.97 631.315 562.854C640.453 570.737 740.03 558.352 740.03 558.352C740.03 558.352 740.969 520.815 732.341 515.332C723.713 509.85 695.16 511.311 695.16 511.311Z" fill="#444176"/>
<path d="M944.552 547.963C944.552 547.963 948.101 572.156 937.133 588.655C926.166 605.154 956.949 611.517 956.949 611.517C956.949 611.517 979.314 617.751 980.943 595.639C982.573 573.527 982.043 556.618 979.943 554.817C977.844 553.016 976.094 540.58 976.094 540.58L944.552 547.963Z" fill="#444176"/>
<path d="M593.451 593.672C593.451 593.672 592.641 515.426 670.014 483.621L687.98 449.415L696.598 428.405C699.719 420.796 704.629 414.052 710.91 408.747C717.192 403.441 724.66 399.731 732.68 397.931L746.617 394.8L750.926 376.631C753.222 366.92 758.309 358.093 765.56 351.241C772.81 344.389 781.907 339.812 791.727 338.073C800.202 336.499 808.802 335.695 817.422 335.672C821.236 335.729 824.97 336.773 828.262 338.701C831.553 340.63 834.291 343.377 836.208 346.677V346.677C836.208 346.677 909.512 345.867 912.761 385.805C912.761 385.805 920.099 422.472 930.687 428.995C930.687 428.995 948.603 424.924 966.519 451.006L986.065 517.837C986.065 517.837 1037.37 565.919 1021.9 609.88C1021.9 609.88 1000.72 640.034 893.215 619.654C893.215 619.654 778.38 654.671 717.254 606.648C717.244 606.708 615.446 626.267 593.451 593.672Z" fill="#A8A8A8"/>
<path opacity="0.1" d="M644.748 581.429C644.748 581.429 661.044 558.609 660.224 542.302C659.405 525.995 664.064 486.277 664.064 486.277" stroke="black" stroke-miterlimit="10"/>
<path opacity="0.1" d="M704.184 520.309C704.184 520.309 720.47 490.156 718.84 473.859C718.84 473.859 735.946 442.845 748.973 445.326" stroke="black" stroke-miterlimit="10"/>
<path opacity="0.1" d="M793.778 434.742C793.778 434.742 838.568 418.442 841.017 405.403" stroke="black" stroke-miterlimit="10"/>
<path opacity="0.1" d="M810.08 472.238C810.08 472.238 857.319 451.048 857.319 445.336H880.923C880.923 445.336 915.135 490.166 911.066 509.724" stroke="black" stroke-miterlimit="10"/>
<path opacity="0.1" d="M865.48 504.841C865.48 504.841 819.871 501.58 803.575 514.625C787.279 527.671 757.965 534.184 757.965 534.184C757.965 534.184 740.859 570.86 734.341 577.373C727.822 583.886 717.235 606.716 717.235 606.716" stroke="black" stroke-miterlimit="10"/>
<path opacity="0.1" d="M865.459 548.042C865.459 548.042 870.338 565.148 876.856 574.931C883.375 584.715 893.143 619.747 893.143 619.747" stroke="black" stroke-miterlimit="10"/>
<path opacity="0.1" d="M942.002 597.731C942.002 597.731 952.34 626.52 961.428 626.8" stroke="black" stroke-miterlimit="10"/>
<path opacity="0.1" d="M874.303 474.201C874.303 474.201 901.156 481.464 912.384 499.06C923.611 516.656 957.903 532.611 957.903 532.611" stroke="black" stroke-miterlimit="10"/>
<path opacity="0.1" d="M885.817 387.504C885.817 387.504 885.817 424.991 896.404 424.991C906.992 424.991 930.616 429.062 930.616 429.062" stroke="black" stroke-miterlimit="10"/>
<path opacity="0.1" d="M833.917 342.983C833.917 342.983 831.208 407.742 817.361 424.509" stroke="black" stroke-miterlimit="10"/>
<g opacity="0.05">
<path opacity="0.05" d="M984.36 517.051L964.814 450.222C946.898 424.14 928.983 428.212 928.983 428.212C918.395 421.689 911.067 385.013 911.067 385.013C907.807 345.075 834.505 345.895 834.505 345.895C832.584 342.59 829.84 339.839 826.541 337.91C823.242 335.981 819.5 334.941 815.679 334.891C812.22 334.891 808.681 335.001 805.141 335.291C807.141 335.491 809.057 335.774 810.89 336.141L816.589 345.925C816.589 345.925 889.882 345.105 893.141 385.043C893.141 385.043 900.479 421.719 911.067 428.242C911.067 428.242 928.983 424.16 946.898 450.252L966.444 517.081C966.444 517.081 1017.75 565.163 1002.28 609.122C1002.28 609.122 991.828 623.999 948.368 625.8C1006.96 627.951 1020.19 609.122 1020.19 609.122C1035.67 565.133 984.36 517.051 984.36 517.051Z" fill="black"/>
<path opacity="0.05" d="M697.682 605.874C680.441 608.978 663.007 610.887 645.504 611.586C665.909 612.367 687.134 610.156 700.811 608.275C699.751 607.464 698.711 606.684 697.682 605.874Z" fill="black"/>
<path opacity="0.05" d="M873.603 618.932C848.53 625.969 822.721 630.052 796.701 631.098C834.242 632.458 869.804 624.625 884.461 620.863C880.921 620.273 877.332 619.603 873.603 618.932Z" fill="black"/>
</g>
<path d="M222.802 746.031C222.802 746.031 245.206 745.34 251.954 740.528C258.703 735.716 286.405 729.973 288.085 737.687C289.764 745.4 321.746 776.054 296.452 776.264C271.159 776.474 237.698 772.322 230.96 768.21C224.222 764.099 222.802 746.031 222.802 746.031Z" fill="#A8A8A8"/>
<path opacity="0.2" d="M296.915 773.574C271.621 773.784 238.149 769.632 231.41 765.57C226.281 762.439 224.232 751.214 223.552 746.042H222.802C222.802 746.042 224.222 764.12 230.96 768.222C237.699 772.323 271.171 776.475 296.455 776.275C303.763 776.215 306.283 773.614 306.143 769.762C305.133 772.083 302.344 773.534 296.915 773.574Z" fill="black"/>
<path d="M769 689.814C769 689.814 742.616 684.532 735.588 677.488C728.56 670.445 696.897 658.14 693.378 666.934C689.859 675.728 645.899 705.651 675.792 710.953C705.685 716.256 746.136 717.957 754.933 714.475C763.731 710.993 769 689.814 769 689.814Z" fill="#A8A8A8"/>
<path opacity="0.2" d="M675.81 707.634C705.713 712.907 746.154 714.637 754.952 711.146C761.64 708.465 766.299 695.589 768.139 689.596L769.019 689.786C769.019 689.786 763.74 710.896 754.952 714.417C746.164 717.939 705.713 716.178 675.81 710.896C667.182 709.375 664.713 705.793 665.643 701.271C666.383 704.253 669.392 706.524 675.81 707.634Z" fill="black"/>
<path opacity="0.1" d="M516.361 114.913H510.083C511.25 114.913 512.368 114.449 513.193 113.624C514.018 112.798 514.482 111.679 514.482 110.511C514.482 109.344 514.018 108.224 513.193 107.398C512.368 106.573 511.25 106.109 510.083 106.109H459.215C458.048 106.109 456.929 106.573 456.104 107.398C455.279 108.224 454.816 109.344 454.816 110.511C454.816 111.679 455.279 112.798 456.104 113.624C456.929 114.449 458.048 114.913 459.215 114.913H465.493C464.364 114.967 463.299 115.454 462.519 116.272C461.739 117.091 461.304 118.179 461.304 119.31C461.304 120.441 461.739 121.529 462.519 122.348C463.299 123.166 464.364 123.653 465.493 123.707H456.705C455.539 123.707 454.42 124.171 453.595 124.996C452.77 125.822 452.306 126.941 452.306 128.109C452.306 129.276 452.77 130.396 453.595 131.222C454.42 132.047 455.539 132.511 456.705 132.511H507.573C508.74 132.511 509.859 132.047 510.684 131.222C511.509 130.396 511.972 129.276 511.972 128.109C511.972 126.941 511.509 125.822 510.684 124.996C509.859 124.171 508.74 123.707 507.573 123.707H516.361C516.956 123.735 517.55 123.643 518.108 123.434C518.666 123.226 519.176 122.907 519.607 122.496C520.037 122.085 520.38 121.591 520.615 121.043C520.849 120.495 520.97 119.906 520.97 119.31C520.97 118.714 520.849 118.125 520.615 117.577C520.38 117.029 520.037 116.535 519.607 116.124C519.176 115.713 518.666 115.394 518.108 115.185C517.55 114.977 516.956 114.885 516.361 114.913V114.913Z" fill="#7A28CB"/>
<path opacity="0.1" d="M713.943 269.775H707.664C708.793 269.721 709.858 269.234 710.638 268.415C711.418 267.596 711.854 266.508 711.854 265.377C711.854 264.246 711.418 263.158 710.638 262.339C709.858 261.52 708.793 261.034 707.664 260.98H656.746C656.151 260.951 655.557 261.044 654.999 261.252C654.442 261.46 653.932 261.78 653.501 262.191C653.07 262.602 652.727 263.096 652.493 263.644C652.258 264.192 652.137 264.781 652.137 265.377C652.137 265.973 652.258 266.563 652.493 267.11C652.727 267.658 653.07 268.152 653.501 268.563C653.932 268.975 654.442 269.294 654.999 269.502C655.557 269.71 656.151 269.803 656.746 269.775H663.025C661.895 269.828 660.83 270.315 660.05 271.134C659.27 271.953 658.835 273.041 658.835 274.172C658.835 275.303 659.27 276.391 660.05 277.21C660.83 278.029 661.895 278.516 663.025 278.57H654.237C653.07 278.57 651.951 279.033 651.126 279.859C650.301 280.685 649.838 281.804 649.838 282.972C649.838 284.14 650.301 285.259 651.126 286.085C651.951 286.911 653.07 287.374 654.237 287.374H705.095C706.262 287.374 707.38 286.911 708.205 286.085C709.03 285.259 709.494 284.14 709.494 282.972C709.494 281.804 709.03 280.685 708.205 279.859C707.38 279.033 706.262 278.57 705.095 278.57H713.943C714.537 278.598 715.132 278.505 715.69 278.297C716.247 278.089 716.757 277.77 717.188 277.358C717.619 276.947 717.962 276.453 718.196 275.905C718.431 275.357 718.551 274.768 718.551 274.172C718.551 273.576 718.431 272.987 718.196 272.439C717.962 271.891 717.619 271.397 717.188 270.986C716.757 270.575 716.247 270.255 715.69 270.047C715.132 269.839 714.537 269.746 713.943 269.775V269.775Z" fill="#7A28CB"/>
<path opacity="0.1" d="M421.193 241.135H414.915C415.51 241.163 416.104 241.071 416.662 240.862C417.219 240.654 417.729 240.335 418.16 239.924C418.591 239.513 418.934 239.018 419.168 238.471C419.403 237.923 419.524 237.334 419.524 236.738C419.524 236.142 419.403 235.553 419.168 235.005C418.934 234.457 418.591 233.963 418.16 233.552C417.729 233.141 417.219 232.822 416.662 232.613C416.104 232.405 415.51 232.313 414.915 232.341H364.037C363.442 232.313 362.848 232.405 362.29 232.613C361.732 232.822 361.223 233.141 360.792 233.552C360.361 233.963 360.018 234.457 359.783 235.005C359.549 235.553 359.428 236.142 359.428 236.738C359.428 237.334 359.549 237.923 359.783 238.471C360.018 239.018 360.361 239.513 360.792 239.924C361.223 240.335 361.732 240.654 362.29 240.862C362.848 241.071 363.442 241.163 364.037 241.135H370.315C369.721 241.106 369.126 241.199 368.569 241.407C368.011 241.615 367.501 241.935 367.07 242.346C366.639 242.757 366.296 243.251 366.062 243.799C365.828 244.346 365.707 244.936 365.707 245.532C365.707 246.128 365.828 246.717 366.062 247.265C366.296 247.812 366.639 248.307 367.07 248.718C367.501 249.129 368.011 249.448 368.569 249.656C369.126 249.864 369.721 249.957 370.315 249.929H361.517C360.351 249.929 359.232 250.392 358.407 251.218C357.582 252.044 357.118 253.163 357.118 254.331C357.118 255.498 357.582 256.618 358.407 257.443C359.232 258.269 360.351 258.733 361.517 258.733H412.386C413.552 258.733 414.671 258.269 415.496 257.443C416.321 256.618 416.785 255.498 416.785 254.331C416.785 253.163 416.321 252.044 415.496 251.218C414.671 250.392 413.552 249.929 412.386 249.929H421.173C421.768 249.957 422.362 249.864 422.92 249.656C423.478 249.448 423.988 249.129 424.419 248.718C424.85 248.307 425.193 247.812 425.427 247.265C425.661 246.717 425.782 246.128 425.782 245.532C425.782 244.936 425.661 244.346 425.427 243.799C425.193 243.251 424.85 242.757 424.419 242.346C423.988 241.935 423.478 241.615 422.92 241.407C422.362 241.199 421.768 241.106 421.173 241.135H421.193Z" fill="#7A28CB"/>
<path d="M779.473 626.816C823.917 626.816 859.946 593.047 859.946 551.39C859.946 509.732 823.917 475.963 779.473 475.963C735.029 475.963 699 509.732 699 551.39C699 593.047 735.029 626.816 779.473 626.816Z" stroke="#FFF027" stroke-width="3" stroke-miterlimit="10"/>
<path d="M779.473 607.96C812.806 607.96 839.827 582.632 839.827 551.39C839.827 520.147 812.806 494.819 779.473 494.819C746.14 494.819 719.118 520.147 719.118 551.39C719.118 582.632 746.14 607.96 779.473 607.96Z" stroke="#FFF027" stroke-width="3" stroke-miterlimit="10"/>
<path d="M779.473 589.103C801.695 589.103 819.709 572.218 819.709 551.39C819.709 530.561 801.695 513.676 779.473 513.676C757.251 513.676 739.237 530.561 739.237 551.39C739.237 572.218 757.251 589.103 779.473 589.103Z" stroke="#FFF027" stroke-width="3" stroke-miterlimit="10"/>
<path d="M906.504 459.408C906.254 458.392 905.465 457.556 904.409 457.21L894.774 454.034L891.382 445.033C891.012 444.047 890.117 443.31 889.03 443.077C887.934 442.843 886.798 443.152 886.009 443.889L866.118 462.471C863.475 464.939 862.138 468.349 862.452 471.826L863.121 479.314C863.089 479.337 863.065 479.367 863.032 479.397L859.48 482.716L824.66 515.243C824.604 515.288 824.54 515.326 824.483 515.378L815.098 524.176L809.289 529.603C809.257 529.633 809.233 529.67 809.2 529.708L779.876 557.2L762.958 541.343C761.709 540.169 759.687 540.169 758.438 541.343C757.189 542.517 757.189 544.414 758.438 545.58L777.612 563.56C778.232 564.147 779.054 564.44 779.868 564.44C780.689 564.44 781.503 564.147 782.131 563.567L813.849 533.96C813.865 533.945 813.889 533.937 813.905 533.922L824.685 523.853L864.08 487.051L867.657 483.709C867.689 483.679 867.713 483.657 867.745 483.626L875.761 484.251C876.116 484.281 876.47 484.296 876.825 484.296C880.168 484.296 883.382 483.062 885.775 480.827L905.666 462.245C906.423 461.493 906.754 460.424 906.504 459.408ZM881.135 476.507C879.854 477.703 878.081 478.306 876.277 478.17L869.51 477.643L868.946 471.321C868.793 469.636 869.445 467.98 870.726 466.783L886.959 451.618L889.159 457.436C889.489 458.302 890.214 458.986 891.149 459.295L897.376 461.35L881.135 476.507Z" fill="#8D34FE"/>
</g>
<defs>
<linearGradient id="paint0_linear" x1="-725089" y1="65567.5" x2="-783530" y2="65567.5" gradientUnits="userSpaceOnUse">
<stop stop-color="#808080" stop-opacity="0.25"/>
<stop offset="0.54" stop-color="#808080" stop-opacity="0.12"/>
<stop offset="1" stop-color="#808080" stop-opacity="0.1"/>
</linearGradient>
<clipPath id="clip0">
<rect width="1032" height="833" fill="white"/>
</clipPath>
</defs>
</svg>
