<svg width="40" height="32" viewBox="0 0 40 32" fill="none" xmlns="http://www.w3.org/2000/svg">
<g clip-path="url(#clip0)">
<path d="M20.0003 24.9996C15.2597 24.9996 11.4222 21.3302 11.0691 16.6802L4.51285 11.6133C3.65097 12.6946 2.85785 13.8377 2.21785 15.0877C2.07488 15.3705 2.00039 15.683 2.00039 15.9999C2.00039 16.3168 2.07488 16.6292 2.21785 16.9121C5.60722 23.5252 12.3172 27.9996 20.0003 27.9996C21.6822 27.9996 23.3047 27.7496 24.8685 27.3458L21.6253 24.8364C21.0897 24.9399 20.5458 24.9945 20.0003 24.9996ZM39.6141 28.6308L32.7047 23.2908C34.8036 21.522 36.5297 19.3535 37.7828 16.9114C37.9258 16.6286 38.0003 16.3161 38.0003 15.9992C38.0003 15.6823 37.9258 15.3699 37.7828 15.0871C34.3934 8.47393 27.6834 3.99955 20.0003 3.99955C16.7825 4.00345 13.617 4.81353 10.7928 6.3558L2.8416 0.210179C2.73791 0.129496 2.61935 0.0700352 2.49267 0.0351944C2.366 0.000353575 2.2337 -0.00918443 2.10334 0.00712542C1.97297 0.0234353 1.8471 0.0652733 1.73291 0.130249C1.61873 0.195224 1.51846 0.282063 1.43785 0.385804L0.210978 1.96518C0.0482271 2.17454 -0.0247004 2.43998 0.00823459 2.70311C0.0411696 2.96624 0.17727 3.20551 0.386603 3.3683L37.1591 31.7889C37.2627 31.8696 37.3813 31.9291 37.508 31.9639C37.6347 31.9988 37.767 32.0083 37.8973 31.992C38.0277 31.9757 38.1536 31.9338 38.2677 31.8689C38.3819 31.8039 38.4822 31.717 38.5628 31.6133L39.7903 30.0339C39.953 29.8245 40.0258 29.559 39.9928 29.2959C39.9597 29.0327 39.8235 28.7935 39.6141 28.6308ZM28.1316 19.7558L25.6753 17.8571C25.8822 17.2592 25.9919 16.6321 26.0003 15.9996C26.0125 15.0735 25.8074 14.1574 25.4013 13.325C24.9953 12.4926 24.3996 11.767 23.6623 11.2066C22.925 10.6461 22.0665 10.2664 21.1558 10.0979C20.245 9.9294 19.3075 9.97685 18.4185 10.2364C18.7953 10.7471 18.9992 11.3649 19.0003 11.9996C18.991 12.2108 18.9587 12.4203 18.9041 12.6246L14.3035 9.06893C15.9016 7.73343 17.9177 7.00109 20.0003 6.99955C21.1824 6.9989 22.353 7.23124 23.4453 7.6833C24.5375 8.13536 25.5299 8.79827 26.3658 9.63413C27.2016 10.47 27.8645 11.4624 28.3166 12.5546C28.7686 13.6469 29.001 14.8175 29.0003 15.9996C29.0003 17.3514 28.6697 18.6114 28.1316 19.7564V19.7558Z" fill="#D8D7D7"/>
</g>
<defs>
<clipPath id="clip0">
<rect width="40" height="32" fill="white"/>
</clipPath>
</defs>
</svg>
