<svg width="390" height="420" viewBox="0 0 390 420" fill="none" xmlns="http://www.w3.org/2000/svg">
<g clip-path="url(#clip0)">
<path d="M210.371 420C309.577 420 390 339.579 390 240.375C390 141.171 309.577 60.75 210.371 60.75C111.164 60.75 30.7417 141.171 30.7417 240.375C30.7417 339.579 111.164 420 210.371 420Z" fill="#FFF027" fill-opacity="0.3"/>
<path d="M105.476 208.611C106.757 206.375 107.419 203.837 107.394 201.26C107.394 194.616 103.279 189.23 98.204 189.23C93.1287 189.23 89.0143 194.616 89.0143 201.26C88.9889 203.837 89.651 206.375 90.9323 208.611C89.6747 210.857 89.0143 213.389 89.0143 215.963C89.0143 218.537 89.6747 221.068 90.9323 223.314C89.6747 225.561 89.0143 228.092 89.0143 230.666C89.0143 233.24 89.6747 235.772 90.9323 238.018C89.6747 240.264 89.0143 242.795 89.0143 245.369C89.0143 247.944 89.6747 250.475 90.9323 252.721C89.651 254.958 88.9889 257.495 89.0143 260.073C89.0143 266.717 93.1287 272.103 98.204 272.103C103.279 272.103 107.394 266.717 107.394 260.073C107.419 257.495 106.757 254.958 105.476 252.721C106.733 250.475 107.394 247.944 107.394 245.369C107.394 242.795 106.733 240.264 105.476 238.018C106.733 235.772 107.394 233.24 107.394 230.666C107.394 228.092 106.733 225.561 105.476 223.314C106.733 221.068 107.394 218.537 107.394 215.963C107.394 213.389 106.733 210.857 105.476 208.611Z" fill="#3F3D56"/>
<path d="M98.2041 198.586C103.279 198.586 107.394 193.2 107.394 186.556C107.394 179.912 103.279 174.526 98.2041 174.526C93.1287 174.526 89.0143 179.912 89.0143 186.556C89.0143 193.2 93.1287 198.586 98.2041 198.586Z" fill="#3F3D56"/>
<path d="M98.2041 183.883C103.279 183.883 107.394 178.497 107.394 171.853C107.394 165.209 103.279 159.823 98.2041 159.823C93.1287 159.823 89.0143 165.209 89.0143 171.853C89.0143 178.497 93.1287 183.883 98.2041 183.883Z" fill="#3F3D56"/>
<path d="M132.606 71.2336C133.861 69.6353 135.005 67.952 136.028 66.196L111.881 62.2303L137.997 62.4245C140.502 56.9738 141.869 51.0693 142.013 45.0722C142.158 39.0751 141.077 33.1115 138.838 27.5464L103.8 45.7215L136.113 21.9701C133.086 16.739 129.014 12.1873 124.15 8.59858C119.287 5.00981 113.737 2.46084 107.846 1.11048C101.955 -0.239881 95.8489 -0.362716 89.9082 0.749629C83.9675 1.86197 78.3194 4.18567 73.3159 7.57596C68.3125 10.9662 64.0607 15.3505 60.8255 20.4556C57.5904 25.5607 55.4411 31.2773 54.5116 37.2492C53.5822 43.2211 53.8924 49.3205 55.423 55.1673C56.9536 61.0141 59.6718 66.4831 63.4083 71.2336C61.4513 73.7213 59.7681 76.4127 58.388 79.2611L89.7324 95.5451L56.3106 84.3284C53.9638 91.2654 53.3839 98.678 54.6232 105.896C55.8625 113.113 58.8819 119.908 63.4083 125.665C58.3011 132.157 55.1241 139.956 54.2405 148.17C53.3569 156.383 54.8023 164.679 58.4115 172.11C62.0207 179.54 67.648 185.805 74.65 190.188C81.652 194.572 89.7462 196.896 98.0071 196.896C106.268 196.896 114.362 194.572 121.364 190.188C128.366 185.805 133.993 179.54 137.603 172.11C141.212 164.679 142.657 156.383 141.774 148.17C140.89 139.956 137.713 132.157 132.606 125.665C138.708 117.905 142.026 108.32 142.026 98.4491C142.026 88.5777 138.708 78.9928 132.606 71.2336L132.606 71.2336Z" fill="#7A28CB"/>
<path opacity="0.1" d="M53.988 98.4491C53.9728 108.323 57.2922 117.913 63.4083 125.665C58.3011 132.157 55.1241 139.956 54.2405 148.17C53.3569 156.383 54.8023 164.679 58.4115 172.11C62.0207 179.54 67.648 185.805 74.65 190.188C81.6521 194.572 89.7462 196.896 98.0071 196.896C106.268 196.896 114.362 194.572 121.364 190.188C128.366 185.805 133.994 179.54 137.603 172.11C141.212 164.679 142.657 156.383 141.774 148.17C140.89 139.956 137.713 132.157 132.606 125.665C138.506 118.175 53.988 93.5087 53.988 98.4491Z" fill="black"/>
<path d="M339.795 359.03C328.404 399.62 240.509 437.266 147.041 411.037C53.5732 384.808 -10.0737 304.635 1.3174 264.045C12.7085 223.455 94.8241 237.818 188.292 264.048C281.76 290.277 351.186 318.44 339.795 359.03Z" fill="#3F3D56"/>
<path opacity="0.1" d="M339.795 359.03C328.404 399.62 240.509 437.266 147.041 411.037C53.5732 384.808 -10.0737 304.635 1.3174 264.045C12.7085 223.455 94.8241 237.818 188.292 264.048C281.76 290.277 351.186 318.44 339.795 359.03Z" fill="black"/>
<path d="M339.795 359.03C351.186 318.44 284.649 264.273 191.182 238.043C97.7136 211.814 12.7085 223.455 1.31743 264.045C-10.0737 304.635 56.4627 358.803 149.931 385.032C243.399 411.262 328.404 399.62 339.795 359.03Z" fill="#3F3D56"/>
<path opacity="0.1" d="M141.987 328.984C170.445 328.984 193.516 322.3 193.516 314.055C193.516 305.81 170.445 299.126 141.987 299.126C113.528 299.126 90.4575 305.81 90.4575 314.055C90.4575 322.3 113.528 328.984 141.987 328.984Z" fill="black"/>
<path d="M205.437 228.146L140.264 293.318L112.871 265.925C111.115 264.169 108.733 263.183 106.25 263.183C103.766 263.183 101.385 264.169 99.6285 265.925L98.6444 264.453C94.9876 268.11 95.9716 275.511 99.6285 279.168L135.17 314.708C136.51 316.048 138.326 316.801 140.221 316.801C142.115 316.802 143.932 316.05 145.272 314.711L218.673 241.388C222.332 237.733 223.66 231.03 220.002 227.373C216.347 223.717 209.093 224.49 205.437 228.146Z" fill="#6E24B7"/>
<path opacity="0.1" d="M205.437 228.146L140.264 293.318L112.871 265.925C111.115 264.169 108.733 263.183 106.25 263.183C103.766 263.183 101.385 264.169 99.6285 265.925L98.6444 264.453C94.9876 268.11 95.9716 275.511 99.6285 279.168L135.17 314.708C136.51 316.048 138.326 316.801 140.221 316.801C142.115 316.802 143.932 316.05 145.272 314.711L218.673 241.388C222.332 237.733 223.66 231.03 220.002 227.373C216.347 223.717 209.093 224.49 205.437 228.146Z" fill="#6E24B7"/>
<path d="M205.437 225.256L140.264 290.428L112.871 263.036C111.115 261.28 108.733 260.293 106.25 260.293C103.766 260.293 101.385 261.28 99.6285 263.036C98.759 263.905 98.0692 264.938 97.5987 266.074C97.1281 267.21 96.8859 268.427 96.8859 269.657C96.8859 270.887 97.1281 272.104 97.5987 273.24C98.0692 274.376 98.759 275.409 99.6285 276.278L135.17 311.819C136.51 313.158 138.326 313.911 140.221 313.912C142.115 313.912 143.932 313.16 145.272 311.822L218.673 238.499C219.543 237.629 220.234 236.597 220.705 235.461C221.176 234.325 221.418 233.108 221.419 231.878C221.419 230.648 221.177 229.43 220.706 228.294C220.236 227.158 219.546 226.126 218.677 225.256C216.921 223.5 214.54 222.514 212.057 222.514C209.574 222.514 207.193 223.501 205.437 225.256Z" fill="#7A28CB"/>
<path d="M237.174 336.195C237.174 336.195 231.346 337.944 228.431 341.441C228.431 341.441 223.186 343.772 219.98 343.189C216.774 342.606 210.946 348.435 215.609 350.183C220.272 351.932 248.831 356.594 249.414 355.137C249.997 353.68 249.997 338.818 249.997 338.818L237.174 336.195Z" fill="#575A89"/>
<path d="M282.958 333.693C282.958 333.693 277.514 336.411 275.24 340.354C275.24 340.354 270.469 343.547 267.211 343.521C263.953 343.494 259.206 350.232 264.099 351.159C268.992 352.085 297.928 351.801 298.253 350.266C298.579 348.731 296.04 334.087 296.04 334.087L282.958 333.693Z" fill="#575A89"/>
<path d="M246.645 136.137C253.888 136.137 259.76 130.265 259.76 123.023C259.76 115.78 253.888 109.909 246.645 109.909C239.403 109.909 233.531 115.78 233.531 123.023C233.531 130.265 239.403 136.137 246.645 136.137Z" fill="#FFB9B9"/>
<path d="M257.282 125.208C257.282 125.208 258.74 135.117 261.362 136.282C263.187 137.181 264.859 138.361 266.317 139.779L259.031 143.276L244.751 142.402C244.751 142.402 245.917 135.991 243.877 132.785C241.837 129.58 257.282 125.208 257.282 125.208Z" fill="#FFB9B9"/>
<path d="M284.385 172.127C284.385 172.127 291.088 189.32 284.385 205.931C277.682 222.542 274.768 225.165 274.768 225.165L272.728 203.308L275.074 201.18C275.074 201.18 276.494 194.55 275.34 190.624C274.185 186.698 275.934 174.458 275.934 174.458L284.385 172.127Z" fill="#FFB9B9"/>
<path d="M234.26 209.428C234.26 209.428 225.809 228.662 226.683 237.987C227.557 247.313 234.26 286.654 234.26 286.654C234.26 286.654 233.386 337.361 236.008 337.361C238.631 337.361 251.163 342.024 251.163 338.818C251.163 335.612 253.785 258.678 253.785 258.678C253.785 258.678 268.648 292.482 270.105 295.105C271.562 297.728 280.888 338.818 284.094 338.818C287.299 338.818 297.208 335.904 296.333 333.864C295.459 331.824 285.551 286.363 280.014 274.706C274.477 263.049 275.642 219.045 275.642 219.045L266.317 198.646L234.26 209.428Z" fill="#2F2E41"/>
<path d="M242.711 117.049C242.711 117.049 234.551 116.466 233.968 114.426C233.386 112.386 232.22 110.637 232.803 110.637C233.386 110.637 233.677 109.18 233.677 109.18C233.677 109.18 234.26 108.889 234.551 109.18C234.843 109.472 235.134 107.14 235.134 107.14C235.134 107.14 235.426 106.266 235.717 106.849C236.008 107.432 236.008 107.14 236.3 106.266C236.591 105.392 238.048 104.809 238.048 104.809C238.048 104.809 243.586 105.101 244.46 103.935C245.334 102.769 255.243 103.643 257.282 105.101C259.322 106.558 268.357 111.803 266.899 116.174C265.442 120.546 260.197 130.162 260.197 131.62C260.197 133.077 258.157 132.785 257.574 131.328C256.991 129.871 252.328 128.123 252.328 127.248C252.328 126.374 249.705 118.214 248.248 118.797C246.791 119.38 245.043 124.043 244.46 123.168C243.877 122.294 242.711 117.049 242.711 117.049Z" fill="#3F3D56"/>
<path d="M282.928 156.973C282.928 156.973 270.979 139.488 267.482 138.614C263.985 137.739 256.117 135.408 256.117 135.408C256.117 135.408 248.248 136.574 245.917 137.739C243.585 138.905 234.843 140.945 234.551 144.442C234.26 147.939 236.883 181.452 235.426 184.658C233.968 187.863 229.014 218.462 231.346 217.879C233.677 217.297 231.928 209.72 242.128 209.428C252.328 209.137 257.865 203.017 261.654 210.302C265.442 217.588 276.225 223.125 276.225 223.125C276.496 220.775 276.885 218.441 277.391 216.131C278.265 212.051 275.059 202.143 275.059 202.143C275.059 202.143 275.351 179.121 276.516 176.498C277.682 173.875 282.928 156.973 282.928 156.973Z" fill="#575A89"/>
<path d="M278.556 156.39L282.928 156.973C282.928 156.973 282.636 162.801 283.802 164.55C284.968 166.298 287.008 175.332 285.842 175.624C284.676 175.915 274.185 177.664 274.185 177.664L273.602 164.258L278.556 156.39Z" fill="#575A89"/>
<path d="M231.346 166.881C231.346 166.881 228.431 185.823 226.974 188.155C225.517 190.486 218.232 223.125 218.232 223.125C218.232 223.125 206.251 239.785 212.079 239.494C217.908 239.202 224.06 224.291 224.06 224.291C224.06 224.291 242.128 191.36 242.128 187.863C242.128 184.366 246.5 166.881 246.5 166.881H231.346Z" fill="#FFB9B9"/>
<path d="M239.797 141.236L234.551 143.276C234.551 143.276 227.849 167.173 229.306 169.213C230.763 171.252 248.248 168.338 248.54 167.464C248.831 166.59 245.334 141.236 239.797 141.236Z" fill="#575A89"/>
<path d="M5.48621 202.641C5.48621 222.949 18.2266 239.381 33.9713 239.381L5.48621 202.641Z" fill="#3F3D56"/>
<path d="M33.9712 239.381C33.9712 218.845 48.1887 202.228 65.7589 202.228L33.9712 239.381Z" fill="#7A28CB"/>
<path d="M15.8068 204.482C15.8068 223.772 23.9311 239.381 33.9711 239.381L15.8068 204.482Z" fill="#7A28CB"/>
<path d="M33.9712 239.381C33.9712 213.141 50.4044 191.907 70.7128 191.907L33.9712 239.381Z" fill="#3F3D56"/>
<path d="M27.9786 239.64C27.9786 239.64 32.0183 239.516 33.2357 238.649C34.4532 237.782 39.4497 236.747 39.7517 238.137C40.0538 239.528 45.8226 245.052 41.2618 245.089C36.7011 245.126 30.6647 244.379 29.4496 243.639C28.2345 242.898 27.9786 239.64 27.9786 239.64Z" fill="#A8A8A8"/>
<path opacity="0.2" d="M41.3433 244.605C36.7826 244.642 30.7462 243.895 29.5311 243.155C28.6057 242.591 28.237 240.568 28.1136 239.635C28.0282 239.639 27.9788 239.64 27.9788 239.64C27.9788 239.64 28.2346 242.898 29.4497 243.639C30.6648 244.379 36.7012 245.126 41.262 245.089C42.5785 245.078 43.0332 244.61 43.0082 243.916C42.8253 244.335 42.3232 244.597 41.3433 244.605Z" fill="black"/>
</g>
<defs>
<clipPath id="clip0">
<rect width="390" height="420" fill="white"/>
</clipPath>
</defs>
</svg>
