<svg width="359" height="587" viewBox="0 0 359 587" fill="none" xmlns="http://www.w3.org/2000/svg">
<g clip-path="url(#clip0)">
<path d="M520.313 586.36C541.904 505.618 522.276 420.699 474.614 359.382L65.4303 466.828L454.218 335.971C261.067 146.535 -49.3748 324.711 13.8445 585.523L520.313 586.36Z" fill="#E6E6E6"/>
<path d="M203.524 550.476L219.026 524.453L197.12 515.691L195.113 518.255C190.096 524.666 185.617 538.21 179.524 543.476" fill="#FFB8B8"/>
<path d="M210.953 554.585L210.197 577.184C210.125 579.318 209.222 581.338 207.68 582.815C206.139 584.291 204.081 585.105 201.946 585.084L184.853 584.915H165.575C165.575 584.915 129.648 584.039 127.896 570.018C127.312 565.345 131.304 562.23 136.886 560.152C150.297 555.204 162.85 548.183 174.087 539.346C175.419 538.28 177.011 537.587 178.698 537.336C180.386 537.086 182.11 537.286 183.695 537.919L205.947 546.894C207.469 547.508 208.766 548.575 209.662 549.951C210.557 551.326 211.008 552.944 210.953 554.585Z" fill="#2F2E41"/>
<path d="M170.816 550.147C171.784 550.147 172.568 549.363 172.568 548.395C172.568 547.427 171.784 546.642 170.816 546.642C169.848 546.642 169.063 547.427 169.063 548.395C169.063 549.363 169.848 550.147 170.816 550.147Z" fill="white"/>
<path d="M176.445 544.036C177.413 544.036 178.198 543.252 178.198 542.284C178.198 541.316 177.413 540.531 176.445 540.531C175.477 540.531 174.693 541.316 174.693 542.284C174.693 543.252 175.477 544.036 176.445 544.036Z" fill="white"/>
<path d="M376.745 516.184L369.306 486.821L347.62 496.115L348.014 499.348C349 507.429 355.41 520.173 354.825 528.205" fill="#FFB8B8"/>
<path d="M384.871 513.801L399.998 529.976C401.549 531.635 402.391 533.836 402.341 536.107C402.292 538.379 401.356 540.541 399.734 542.131L387.894 553.739L374.263 567.37C374.263 567.37 348.239 592.154 337.087 583.48C333.369 580.588 333.989 575.563 336.467 570.147C342.49 557.081 346.413 543.147 348.091 528.858C348.269 527.244 348.872 525.706 349.839 524.402C350.806 523.097 352.101 522.072 353.594 521.432L375.969 511.919C377.467 511.282 379.124 511.121 380.717 511.458C382.309 511.795 383.759 512.613 384.871 513.801Z" fill="#2F2E41"/>
<path d="M352.145 539.593C353.113 539.593 353.898 538.809 353.898 537.841C353.898 536.873 353.113 536.088 352.145 536.088C351.177 536.088 350.393 536.873 350.393 537.841C350.393 538.809 351.177 539.593 352.145 539.593Z" fill="white"/>
<path d="M351.805 531.291C352.773 531.291 353.557 530.507 353.557 529.539C353.557 528.571 352.773 527.786 351.805 527.786C350.837 527.786 350.052 528.571 350.052 529.539C350.052 530.507 350.837 531.291 351.805 531.291Z" fill="white"/>
<path d="M245.314 147.663L254.953 174.827L280.364 159.931C280.364 159.931 267.22 144.158 268.097 135.396L245.314 147.663Z" fill="#FFB8B8"/>
<path d="M248.381 151.606C261.931 151.606 272.916 140.621 272.916 127.071C272.916 113.521 261.931 102.536 248.381 102.536C234.831 102.536 223.846 113.521 223.846 127.071C223.846 140.621 234.831 151.606 248.381 151.606Z" fill="#FFB8B8"/>
<path d="M283.869 156.426L278.73 157.863C278.73 157.863 268.097 157.302 262.839 165.188C257.582 173.075 253.692 171.274 253.692 171.274L232.17 203.743C232.17 203.743 225.16 216.887 227.789 231.784C230.418 246.68 239.18 267.71 239.18 267.71C239.18 267.71 295.261 272.968 297.013 270.339C298.766 267.71 297.013 250.185 297.013 250.185L304.023 172.198C304.023 172.198 296.137 159.054 291.756 159.054C288.928 158.959 286.189 158.046 283.869 156.426Z" fill="#7A28CB"/>
<path d="M301.395 265.081C301.395 265.081 286.498 264.205 280.364 265.958C274.231 267.71 237.428 265.958 237.428 265.958L226.913 331.677L192.739 517.443L229.542 531.463L273.354 427.189L278.612 442.085L345.207 514.814L380.258 499.042L322.425 402.654L304.023 335.182C304.023 335.182 315.415 296.627 299.642 272.968L301.395 265.081Z" fill="#FFF568"/>
<path opacity="0.2" d="M241.76 334.017L240.105 334.594L272.527 427.477L274.182 426.9L241.76 334.017Z" fill="black"/>
<path d="M293.838 88.3447C292.442 82.8229 287.777 79.24 283.417 80.3422C283.368 80.3546 283.322 80.3749 283.273 80.3885C283.767 80.1141 284.293 79.9047 284.84 79.7658C289.2 78.6636 293.865 82.2466 295.261 87.7684C296.642 93.2276 294.306 98.531 290.04 99.7157C293.382 97.8632 295.056 93.1627 293.838 88.3447Z" fill="#2F2E41"/>
<path d="M292.81 96.9375C297.209 93.3191 298.459 87.5708 295.602 84.0983C295.569 84.059 295.532 84.0263 295.498 83.9879C295.957 84.3168 296.371 84.7039 296.73 85.1394C299.587 88.6118 298.337 94.3601 293.938 97.9786C289.59 101.556 283.797 101.706 280.905 98.3533C284.007 100.586 288.972 100.095 292.81 96.9375Z" fill="#2F2E41"/>
<path d="M295.371 98.6396C297.762 94.8315 295.79 89.2893 290.967 86.2606C286.143 83.2319 280.295 83.8638 277.904 87.6718C275.513 91.4799 277.484 97.0221 282.308 100.051C287.132 103.079 292.98 102.448 295.371 98.6396Z" fill="#2F2E41"/>
<path d="M278.164 95.8071C280.474 95.8076 282.735 96.4716 284.678 97.7201C286.385 98.7748 287.808 100.232 288.822 101.964C286.512 101.963 284.251 101.299 282.308 100.051C280.601 98.9961 279.178 97.539 278.164 95.8071Z" fill="#7A28CB"/>
<path d="M244.879 92.0208C241.157 92.0208 239.987 95.3242 240.695 98.7892C244.734 118.188 243.145 138.338 236.113 156.864H258.625L262.839 146.89L264.472 156.864H293.946V146.805C303.866 106.059 282.83 86.1751 244.879 92.0208Z" fill="#2F2E41"/>
<path d="M241.187 92.8971H238.926C236.715 92.8971 234.526 93.3324 232.484 94.1783C230.442 95.0242 228.586 96.2641 227.023 97.8271C225.46 99.3901 224.22 101.246 223.375 103.288C222.529 105.33 222.093 107.519 222.093 109.729V115.68L236.78 113.889L237.866 109.546L238.887 113.632L258.02 111.298V109.729C258.02 107.519 257.584 105.33 256.738 103.288C255.893 101.246 254.653 99.3901 253.09 97.8271C251.527 96.2641 249.671 95.0242 247.629 94.1783C245.587 93.3324 243.398 92.8971 241.187 92.8971Z" fill="#2F2E41"/>
<path opacity="0.2" d="M278.277 201.363L269.515 266.206L260.324 266.685L278.277 201.363Z" fill="black"/>
<path d="M269.217 279.433L251.807 331.664C251.807 331.664 215.536 372.287 235.848 372.287C256.159 372.287 266.315 336.016 266.315 336.016L290.98 283.786L269.217 279.433Z" fill="#FFB8B8"/>
<path d="M287.352 161.19C287.352 161.19 299.153 156.081 306.318 168.942C313.482 181.802 310.566 230.83 309.115 238.084C307.664 245.338 297.508 290.315 297.508 290.315L262.688 283.06C262.688 283.06 259.786 262.749 268.492 264.199L287.352 161.19Z" fill="#7A28CB"/>
<path d="M526 584.712H-362V586.952H526V584.712Z" fill="#3F3D56"/>
</g>
<defs>
<clipPath id="clip0">
<rect width="529" height="587" fill="white"/>
</clipPath>
</defs>
</svg>
