<svg width="265" height="265" viewBox="0 0 265 265" fill="none" xmlns="http://www.w3.org/2000/svg">
<g clip-path="url(#clip0)">
<path d="M671.876 446.51C688.317 385.025 673.371 320.36 637.076 273.667L325.486 355.487L621.545 255.84C474.462 111.586 238.062 247.265 286.203 445.872L671.876 446.51Z" fill="#E6E6E6"/>
<path d="M136.686 229.743C184.831 229.743 223.861 190.713 223.861 142.568C223.861 94.4222 184.831 55.3926 136.686 55.3926C88.5401 55.3926 49.5105 94.4222 49.5105 142.568C49.5105 190.713 88.5401 229.743 136.686 229.743Z" fill="#E6E6E6"/>
<path d="M252.919 174.5H189.373C185.036 149.431 185.036 123.803 189.373 98.734H252.919C245.76 123.482 245.76 149.752 252.919 174.5Z" fill="#FFF027"/>
<path d="M238.819 119.256H200.15C199.483 119.256 198.942 118.387 198.942 117.312C198.942 116.238 199.483 115.369 200.15 115.369H238.819C239.486 115.369 240.027 116.238 240.027 117.312C240.027 118.387 239.486 119.256 238.819 119.256Z" fill="white"/>
<path d="M238.819 137.286H200.15C199.483 137.286 198.942 136.417 198.942 135.342C198.942 134.268 199.483 133.399 200.15 133.399H238.819C239.486 133.399 240.027 134.268 240.027 135.342C240.027 136.417 239.486 137.286 238.819 137.286Z" fill="white"/>
<path d="M55.4709 97.6111H137.338C142.925 65.3139 142.925 32.2972 137.338 0H55.4709C64.694 31.8834 64.694 65.7277 55.4709 97.6111Z" fill="#7A28CB"/>
<path d="M124.421 28.4392H74.6037C73.7439 28.4392 73.0469 27.3193 73.0469 25.9353C73.0469 24.5513 73.7439 23.4314 74.6037 23.4314H124.421C125.281 23.4314 125.978 24.5513 125.978 25.9353C125.978 27.3193 125.281 28.4392 124.421 28.4392Z" fill="white"/>
<path d="M124.421 51.6677H74.6037C73.7439 51.6677 73.0469 50.5478 73.0469 49.1638C73.0469 47.7798 73.7439 46.6599 74.6037 46.6599H124.421C125.281 46.6599 125.978 47.7798 125.978 49.1638C125.978 50.5478 125.281 51.6677 124.421 51.6677Z" fill="white"/>
<path d="M124.421 74.8962H74.6037C73.7439 74.8962 73.0469 73.7763 73.0469 72.3923C73.0469 71.0083 73.7439 69.8884 74.6037 69.8884H124.421C125.281 69.8884 125.978 71.0083 125.978 72.3923C125.978 73.7763 125.281 74.8962 124.421 74.8962Z" fill="white"/>
<path d="M1.39014 249.36H83.2575C88.8443 217.063 88.8443 184.046 83.2575 151.749H1.39014C10.6131 183.633 10.6131 217.477 1.39014 249.36Z" fill="#7A28CB"/>
<path d="M70.3407 180.188H20.5229C19.6631 180.188 18.9661 179.068 18.9661 177.684C18.9661 176.3 19.6631 175.181 20.5229 175.181H70.3407C71.2004 175.181 71.8975 176.3 71.8975 177.684C71.8975 179.068 71.2004 180.188 70.3407 180.188Z" fill="white"/>
<path d="M70.3407 203.417H20.5229C19.6631 203.417 18.9661 202.297 18.9661 200.913C18.9661 199.529 19.6631 198.409 20.5229 198.409H70.3407C71.2004 198.409 71.8975 199.529 71.8975 200.913C71.8975 202.297 71.2004 203.417 70.3407 203.417Z" fill="white"/>
</g>
<defs>
<clipPath id="clip0">
<rect width="265" height="265" fill="white"/>
</clipPath>
</defs>
</svg>
