<svg width="148" height="141" viewBox="0 0 148 141" fill="none" xmlns="http://www.w3.org/2000/svg">
<path d="M58.636 138.044C89.9152 138.044 115.272 112.683 115.272 81.3991C115.272 50.1152 89.9152 24.7546 58.636 24.7546C27.3568 24.7546 2 50.1152 2 81.3991C2 112.683 27.3568 138.044 58.636 138.044Z" stroke="#FFF027" stroke-width="4" stroke-miterlimit="10"/>
<path d="M58.6362 123.882C82.0956 123.882 101.113 104.862 101.113 81.3991C101.113 57.9362 82.0956 38.9158 58.6362 38.9158C35.1768 38.9158 16.1592 57.9362 16.1592 81.3991C16.1592 104.862 35.1768 123.882 58.6362 123.882Z" stroke="#FFF027" stroke-width="4" stroke-miterlimit="10"/>
<path d="M58.6359 109.721C74.2755 109.721 86.9539 97.0411 86.9539 81.3991C86.9539 65.7572 74.2755 53.0769 58.6359 53.0769C42.9963 53.0769 30.3179 65.7572 30.3179 81.3991C30.3179 97.0411 42.9963 109.721 58.6359 109.721Z" stroke="#FFF027" stroke-width="4" stroke-miterlimit="10"/>
<path d="M147.793 12.2951C147.617 11.5337 147.061 10.9077 146.318 10.6483L139.532 8.26845L137.143 1.5236C136.882 0.784824 136.252 0.232152 135.486 0.0573275C134.715 -0.117497 133.915 0.113723 133.358 0.666394L119.349 14.5903C117.488 16.4401 116.546 18.9948 116.768 21.6002L117.239 27.2115C117.216 27.2285 117.199 27.251 117.176 27.2736L114.674 29.7606L90.151 54.1346C90.1112 54.1684 90.0659 54.1966 90.0261 54.2361L83.4159 60.8286L79.325 64.8947C79.3023 64.9173 79.2852 64.9455 79.2626 64.9737L58.6092 85.5748L46.6938 73.6924C45.8143 72.8126 44.3901 72.8126 43.5107 73.6924C42.6312 74.5721 42.6312 75.9933 43.5107 76.8674L57.0148 90.3402C57.4517 90.7801 58.0304 91 58.6035 91C59.1823 91 59.7553 90.7801 60.1979 90.3458L82.5365 68.16C82.5478 68.1487 82.5648 68.1431 82.5762 68.1318L90.168 60.5861L117.914 33.009L120.433 30.505C120.456 30.4825 120.473 30.4655 120.496 30.443L126.141 30.9111C126.391 30.9336 126.64 30.9449 126.89 30.9449C129.245 30.9449 131.509 30.02 133.194 28.3451L147.203 14.4211C147.736 13.8572 147.969 13.0564 147.793 12.2951ZM129.926 25.108C129.024 26.0047 127.775 26.4559 126.504 26.3543L121.738 25.9596L121.341 21.2224C121.233 19.9591 121.693 18.7185 122.595 17.8218L134.028 6.45817L135.577 10.8175C135.81 11.466 136.32 11.9792 136.978 12.2105L141.364 13.75L129.926 25.108Z" fill="#8D34FE"/>
</svg>
